G04 Layer: TopPasteMaskLayer*
G04 Gerber Generator version 0.2*
G04 Scale: 100 percent, Rotated: No, Reflected: No *
G04 Dimensions in millimeters *
G04 leading zeros omitted , absolute positions ,4 integer and 5 decimal *
%FSLAX45Y45*%
%MOMM*%

%ADD14R,0.8000X0.9000*%
%ADD15R,0.9000X0.8000*%
%ADD16R,0.7000X1.2500*%
%ADD17R,1.2500X0.7000*%

%LPD*%
G36*
X2643022Y-564591D02*
G01*
X2637993Y-569620D01*
X2637993Y-592378D01*
X2674975Y-592378D01*
X2674975Y-625398D01*
X2637993Y-625398D01*
X2637993Y-649579D01*
X2643022Y-654608D01*
X2722981Y-654608D01*
X2728010Y-649579D01*
X2728010Y-569620D01*
X2722981Y-564591D01*
G37*
G36*
X2484018Y-564591D02*
G01*
X2478989Y-569620D01*
X2478989Y-649579D01*
X2484018Y-654608D01*
X2563012Y-654608D01*
X2567990Y-649579D01*
X2567990Y-625398D01*
X2529992Y-625398D01*
X2529992Y-592378D01*
X2567990Y-592378D01*
X2567990Y-569620D01*
X2563012Y-564591D01*
G37*
G36*
X2643022Y-221691D02*
G01*
X2637993Y-226720D01*
X2637993Y-249478D01*
X2674975Y-249478D01*
X2674975Y-282498D01*
X2637993Y-282498D01*
X2637993Y-306679D01*
X2643022Y-311708D01*
X2722981Y-311708D01*
X2728010Y-306679D01*
X2728010Y-226720D01*
X2722981Y-221691D01*
G37*
G36*
X2484018Y-221691D02*
G01*
X2478989Y-226720D01*
X2478989Y-306679D01*
X2484018Y-311708D01*
X2563012Y-311708D01*
X2567990Y-306679D01*
X2567990Y-282498D01*
X2529992Y-282498D01*
X2529992Y-249478D01*
X2567990Y-249478D01*
X2567990Y-226720D01*
X2563012Y-221691D01*
G37*
G36*
X2680868Y-782370D02*
G01*
X2670860Y-792327D01*
X2670860Y-893114D01*
X2680868Y-903122D01*
X2716987Y-903122D01*
X2726994Y-893114D01*
X2726994Y-872032D01*
X2737002Y-862025D01*
X2774797Y-862025D01*
X2784805Y-872032D01*
X2784805Y-893114D01*
X2794812Y-903122D01*
X2830931Y-903122D01*
X2840939Y-893114D01*
X2840939Y-792327D01*
X2830931Y-782370D01*
G37*
G36*
X2680868Y-1078077D02*
G01*
X2670860Y-1088085D01*
X2670860Y-1188872D01*
X2680868Y-1198829D01*
X2830931Y-1198829D01*
X2840939Y-1188872D01*
X2840939Y-1088085D01*
X2830931Y-1078077D01*
X2794812Y-1078077D01*
X2784805Y-1088085D01*
X2784805Y-1109167D01*
X2774797Y-1119174D01*
X2737002Y-1119174D01*
X2726994Y-1109167D01*
X2726994Y-1088085D01*
X2716987Y-1078077D01*
G37*
G36*
X3087268Y-782370D02*
G01*
X3077260Y-792327D01*
X3077260Y-893114D01*
X3087268Y-903122D01*
X3123387Y-903122D01*
X3133394Y-893114D01*
X3133394Y-872032D01*
X3143402Y-862025D01*
X3181197Y-862025D01*
X3191205Y-872032D01*
X3191205Y-893114D01*
X3201212Y-903122D01*
X3237331Y-903122D01*
X3247339Y-893114D01*
X3247339Y-792327D01*
X3237331Y-782370D01*
G37*
G36*
X3087268Y-1078077D02*
G01*
X3077260Y-1088085D01*
X3077260Y-1188872D01*
X3087268Y-1198829D01*
X3237331Y-1198829D01*
X3247339Y-1188872D01*
X3247339Y-1088085D01*
X3237331Y-1078077D01*
X3201212Y-1078077D01*
X3191205Y-1088085D01*
X3191205Y-1109167D01*
X3181197Y-1119174D01*
X3143402Y-1119174D01*
X3133394Y-1109167D01*
X3133394Y-1088085D01*
X3123387Y-1078077D01*
G37*
G36*
X3798468Y-782370D02*
G01*
X3788460Y-792327D01*
X3788460Y-893114D01*
X3798468Y-903122D01*
X3834587Y-903122D01*
X3844594Y-893114D01*
X3844594Y-872032D01*
X3854602Y-862025D01*
X3892397Y-862025D01*
X3902405Y-872032D01*
X3902405Y-893114D01*
X3912412Y-903122D01*
X3948531Y-903122D01*
X3958539Y-893114D01*
X3958539Y-792327D01*
X3948531Y-782370D01*
G37*
G36*
X3798468Y-1078077D02*
G01*
X3788460Y-1088085D01*
X3788460Y-1188872D01*
X3798468Y-1198829D01*
X3948531Y-1198829D01*
X3958539Y-1188872D01*
X3958539Y-1088085D01*
X3948531Y-1078077D01*
X3912412Y-1078077D01*
X3902405Y-1088085D01*
X3902405Y-1109167D01*
X3892397Y-1119174D01*
X3854602Y-1119174D01*
X3844594Y-1109167D01*
X3844594Y-1088085D01*
X3834587Y-1078077D01*
G37*
G36*
X3112668Y-71170D02*
G01*
X3102660Y-81127D01*
X3102660Y-181914D01*
X3112668Y-191922D01*
X3148787Y-191922D01*
X3158794Y-181914D01*
X3158794Y-160832D01*
X3168802Y-150825D01*
X3206597Y-150825D01*
X3216605Y-160832D01*
X3216605Y-181914D01*
X3226612Y-191922D01*
X3262731Y-191922D01*
X3272739Y-181914D01*
X3272739Y-81127D01*
X3262731Y-71170D01*
G37*
G36*
X3112668Y-366877D02*
G01*
X3102660Y-376885D01*
X3102660Y-477672D01*
X3112668Y-487629D01*
X3262731Y-487629D01*
X3272739Y-477672D01*
X3272739Y-376885D01*
X3262731Y-366877D01*
X3226612Y-366877D01*
X3216605Y-376885D01*
X3216605Y-397967D01*
X3206597Y-407974D01*
X3168802Y-407974D01*
X3158794Y-397967D01*
X3158794Y-376885D01*
X3148787Y-366877D01*
G37*
G36*
X3658768Y-83870D02*
G01*
X3648760Y-93827D01*
X3648760Y-194614D01*
X3658768Y-204622D01*
X3694887Y-204622D01*
X3704894Y-194614D01*
X3704894Y-173532D01*
X3714902Y-163525D01*
X3752697Y-163525D01*
X3762705Y-173532D01*
X3762705Y-194614D01*
X3772712Y-204622D01*
X3808831Y-204622D01*
X3818839Y-194614D01*
X3818839Y-93827D01*
X3808831Y-83870D01*
G37*
G36*
X3658768Y-379577D02*
G01*
X3648760Y-389585D01*
X3648760Y-490372D01*
X3658768Y-500329D01*
X3808831Y-500329D01*
X3818839Y-490372D01*
X3818839Y-389585D01*
X3808831Y-379577D01*
X3772712Y-379577D01*
X3762705Y-389585D01*
X3762705Y-410667D01*
X3752697Y-420674D01*
X3714902Y-420674D01*
X3704894Y-410667D01*
X3704894Y-389585D01*
X3694887Y-379577D01*
G37*
G36*
X3963568Y-83870D02*
G01*
X3953560Y-93827D01*
X3953560Y-194614D01*
X3963568Y-204622D01*
X3999687Y-204622D01*
X4009694Y-194614D01*
X4009694Y-173532D01*
X4019702Y-163525D01*
X4057497Y-163525D01*
X4067505Y-173532D01*
X4067505Y-194614D01*
X4077512Y-204622D01*
X4113631Y-204622D01*
X4123639Y-194614D01*
X4123639Y-93827D01*
X4113631Y-83870D01*
G37*
G36*
X3963568Y-379577D02*
G01*
X3953560Y-389585D01*
X3953560Y-490372D01*
X3963568Y-500329D01*
X4113631Y-500329D01*
X4123639Y-490372D01*
X4123639Y-389585D01*
X4113631Y-379577D01*
X4077512Y-379577D01*
X4067505Y-389585D01*
X4067505Y-410667D01*
X4057497Y-420674D01*
X4019702Y-420674D01*
X4009694Y-410667D01*
X4009694Y-389585D01*
X3999687Y-379577D01*
G37*
G36*
X2963699Y-589998D02*
G01*
X3043699Y-589998D01*
X3043699Y-680001D01*
X2963699Y-680001D01*
G37*
G36*
X2823700Y-589998D02*
G01*
X2903700Y-589998D01*
X2903700Y-680001D01*
X2823700Y-680001D01*
G37*
G36*
X3547899Y-945598D02*
G01*
X3627899Y-945598D01*
X3627899Y-1035601D01*
X3547899Y-1035601D01*
G37*
G36*
X3407900Y-945598D02*
G01*
X3487900Y-945598D01*
X3487900Y-1035601D01*
X3407900Y-1035601D01*
G37*
D15*
G01*
X4254500Y-984097D03*
G01*
X4254500Y-1124102D03*
G36*
X4055899Y-602698D02*
G01*
X4135899Y-602698D01*
X4135899Y-692701D01*
X4055899Y-692701D01*
G37*
G36*
X3915900Y-602698D02*
G01*
X3995900Y-602698D01*
X3995900Y-692701D01*
X3915900Y-692701D01*
G37*
G01*
X4356100Y-107797D03*
G01*
X4356100Y-247802D03*
G01*
X4737100Y-107797D03*
G01*
X4737100Y-247802D03*
G01*
X4978400Y-984097D03*
G01*
X4978400Y-1124102D03*
D14*
G01*
X6343497Y-774700D03*
G01*
X6483502Y-774700D03*
D15*
G01*
X5740400Y-984097D03*
G01*
X5740400Y-1124102D03*
G01*
X6184900Y-984097D03*
G01*
X6184900Y-1124102D03*
D16*
G01*
X3441700Y-484631D03*
G01*
X3536695Y-734568D03*
G01*
X3346704Y-734568D03*
D17*
G01*
X4722368Y-1028700D03*
G01*
X4472431Y-1123695D03*
G01*
X4472431Y-933704D03*
M02*
