G04 Layer: TopSilkLayer*
G04 Gerber Generator version 0.2*
G04 Scale: 100 percent, Rotated: No, Reflected: No *
G04 Dimensions in millimeters *
G04 leading zeros omitted , absolute positions ,4 integer and 5 decimal *
%FSLAX45Y45*%
%MOMM*%

%ADD10C,0.2540*%
%ADD24C,0.2000*%
%ADD25C,0.1524*%

%LPD*%
G36*
X31529020Y-146558D02*
G01*
X31047944Y-1027684D01*
X31154624Y-1027684D01*
X31633414Y-146558D01*
G37*
G36*
X20727416Y-146558D02*
G01*
X20246340Y-1027684D01*
X20353020Y-1027684D01*
X20831556Y-146558D01*
G37*
G36*
X28461208Y-213360D02*
G01*
X28446628Y-213512D01*
X28432404Y-214020D01*
X28418586Y-214884D01*
X28405124Y-216052D01*
X28392069Y-217576D01*
X28379369Y-219405D01*
X28367075Y-221640D01*
X28355137Y-224129D01*
X28343606Y-227025D01*
X28332430Y-230225D01*
X28321660Y-233730D01*
X28311297Y-237642D01*
X28301289Y-241858D01*
X28291637Y-246379D01*
X28282442Y-251307D01*
X28273552Y-256489D01*
X28265069Y-262077D01*
X28256992Y-267970D01*
X28248356Y-275031D01*
X28240278Y-282397D01*
X28232760Y-290169D01*
X28225750Y-298297D01*
X28219349Y-306781D01*
X28213507Y-315671D01*
X28208224Y-324866D01*
X28203448Y-334467D01*
X28199283Y-344424D01*
X28195676Y-354685D01*
X28192577Y-365353D01*
X28190088Y-376428D01*
X28188107Y-387807D01*
X28186735Y-399592D01*
X28185872Y-411683D01*
X28185618Y-424180D01*
X28185973Y-438353D01*
X28186989Y-451916D01*
X28188716Y-464820D01*
X28191155Y-477113D01*
X28194253Y-488797D01*
X28198064Y-499872D01*
X28202483Y-510438D01*
X28207512Y-520547D01*
X28213253Y-530301D01*
X28219603Y-539597D01*
X28226664Y-548538D01*
X28234386Y-557022D01*
X28242869Y-565150D01*
X28252267Y-572973D01*
X28262529Y-580542D01*
X28273654Y-587705D01*
X28285694Y-594614D01*
X28298648Y-601218D01*
X28313532Y-607822D01*
X28331414Y-614680D01*
X28352292Y-621842D01*
X28376219Y-629310D01*
X28403092Y-637082D01*
X28433014Y-645160D01*
X28511753Y-665226D01*
X28524555Y-668883D01*
X28536950Y-672795D01*
X28548838Y-677113D01*
X28560318Y-681685D01*
X28571291Y-686663D01*
X28581858Y-691896D01*
X28591865Y-697636D01*
X28601212Y-703935D01*
X28609848Y-710692D01*
X28617875Y-717956D01*
X28625190Y-725779D01*
X28631896Y-734060D01*
X28637738Y-743102D01*
X28642462Y-753008D01*
X28646170Y-763727D01*
X28648812Y-775258D01*
X28650438Y-787654D01*
X28650946Y-800862D01*
X28650438Y-813917D01*
X28649015Y-826363D01*
X28646577Y-838200D01*
X28643224Y-849426D01*
X28638855Y-860044D01*
X28633572Y-870051D01*
X28627273Y-879449D01*
X28620059Y-888237D01*
X28611880Y-896416D01*
X28602686Y-903986D01*
X28594303Y-909777D01*
X28585261Y-915060D01*
X28575660Y-919886D01*
X28565398Y-924153D01*
X28554527Y-927963D01*
X28543046Y-931214D01*
X28530956Y-934008D01*
X28518256Y-936294D01*
X28504896Y-938021D01*
X28490976Y-939292D01*
X28476397Y-940053D01*
X28461208Y-940308D01*
X28447085Y-940053D01*
X28433471Y-939342D01*
X28420314Y-938174D01*
X28407664Y-936498D01*
X28395472Y-934364D01*
X28383738Y-931722D01*
X28372511Y-928624D01*
X28361741Y-925068D01*
X28351480Y-921003D01*
X28341675Y-916482D01*
X28332379Y-911504D01*
X28323539Y-906018D01*
X28313583Y-898804D01*
X28304337Y-890727D01*
X28295752Y-881837D01*
X28287878Y-872134D01*
X28280766Y-861568D01*
X28274264Y-850188D01*
X28268523Y-837946D01*
X28263494Y-824890D01*
X28259125Y-811022D01*
X28255468Y-796290D01*
X28147010Y-817880D01*
X28149448Y-828802D01*
X28152191Y-839368D01*
X28155290Y-849680D01*
X28158643Y-859739D01*
X28162300Y-869442D01*
X28166314Y-878890D01*
X28170632Y-888034D01*
X28175254Y-896924D01*
X28180182Y-905510D01*
X28185414Y-913790D01*
X28190952Y-921766D01*
X28196794Y-929487D01*
X28202991Y-936853D01*
X28209443Y-944016D01*
X28216250Y-950823D01*
X28223362Y-957376D01*
X28230779Y-963625D01*
X28238500Y-969568D01*
X28246527Y-975258D01*
X28254858Y-980592D01*
X28263494Y-985672D01*
X28272486Y-990498D01*
X28281731Y-994968D01*
X28291332Y-999185D01*
X28301238Y-1003147D01*
X28311449Y-1006754D01*
X28321965Y-1010107D01*
X28332785Y-1013155D01*
X28343910Y-1015898D01*
X28355391Y-1018387D01*
X28367126Y-1020571D01*
X28379216Y-1022451D01*
X28391612Y-1024026D01*
X28404261Y-1025347D01*
X28417265Y-1026363D01*
X28430575Y-1027125D01*
X28444240Y-1027531D01*
X28458160Y-1027684D01*
X28472587Y-1027531D01*
X28486709Y-1027074D01*
X28500476Y-1026312D01*
X28513887Y-1025296D01*
X28526994Y-1023924D01*
X28539744Y-1022248D01*
X28552139Y-1020318D01*
X28564230Y-1018032D01*
X28575965Y-1015492D01*
X28587395Y-1012647D01*
X28598469Y-1009497D01*
X28609188Y-1005992D01*
X28619602Y-1002233D01*
X28629660Y-998169D01*
X28639363Y-993800D01*
X28648761Y-989177D01*
X28657803Y-984199D01*
X28666541Y-978916D01*
X28674923Y-973378D01*
X28682950Y-967486D01*
X28692500Y-959764D01*
X28701390Y-951636D01*
X28709721Y-943152D01*
X28717392Y-934313D01*
X28724453Y-925068D01*
X28730956Y-915466D01*
X28736798Y-905510D01*
X28742030Y-895146D01*
X28746602Y-884428D01*
X28750615Y-873353D01*
X28754019Y-861923D01*
X28756762Y-850087D01*
X28758946Y-837895D01*
X28760470Y-825347D01*
X28761385Y-812393D01*
X28761689Y-799084D01*
X28761385Y-784758D01*
X28760420Y-771093D01*
X28758845Y-758139D01*
X28756610Y-745794D01*
X28753765Y-734161D01*
X28750260Y-723138D01*
X28746196Y-712622D01*
X28741725Y-702513D01*
X28736747Y-692912D01*
X28731311Y-683717D01*
X28725368Y-675030D01*
X28719018Y-666750D01*
X28712109Y-658977D01*
X28704794Y-651510D01*
X28697072Y-644398D01*
X28688893Y-637641D01*
X28680257Y-631190D01*
X28671265Y-625094D01*
X28661715Y-619353D01*
X28651758Y-613816D01*
X28641344Y-608533D01*
X28630524Y-603402D01*
X28619246Y-598525D01*
X28599942Y-591058D01*
X28582061Y-585012D01*
X28560471Y-578408D01*
X28535223Y-571296D01*
X28414472Y-539750D01*
X28402940Y-536498D01*
X28391916Y-532942D01*
X28381350Y-529082D01*
X28371241Y-524967D01*
X28361639Y-520547D01*
X28352496Y-515874D01*
X28339846Y-508254D01*
X28328620Y-499668D01*
X28318764Y-490118D01*
X28310332Y-479551D01*
X28303575Y-467766D01*
X28298698Y-454355D01*
X28295803Y-439216D01*
X28294838Y-422401D01*
X28295193Y-411327D01*
X28296209Y-400761D01*
X28297936Y-390702D01*
X28300324Y-381152D01*
X28303372Y-372160D01*
X28307131Y-363677D01*
X28311602Y-355650D01*
X28316732Y-348183D01*
X28322574Y-341223D01*
X28329077Y-334772D01*
X28336239Y-328879D01*
X28344114Y-323443D01*
X28352648Y-318566D01*
X28361894Y-314198D01*
X28371800Y-310337D01*
X28382417Y-306984D01*
X28393745Y-304139D01*
X28405683Y-301802D01*
X28418383Y-300024D01*
X28431693Y-298704D01*
X28445714Y-297942D01*
X28460446Y-297688D01*
X28474822Y-297992D01*
X28488538Y-298856D01*
X28501695Y-300329D01*
X28514192Y-302412D01*
X28526028Y-305054D01*
X28537306Y-308305D01*
X28547923Y-312115D01*
X28557880Y-316534D01*
X28567278Y-321564D01*
X28576015Y-327152D01*
X28584144Y-333451D01*
X28591764Y-340461D01*
X28598774Y-348183D01*
X28605226Y-356666D01*
X28611118Y-365810D01*
X28616452Y-375716D01*
X28621227Y-386283D01*
X28625444Y-397611D01*
X28629051Y-409651D01*
X28632150Y-422401D01*
X28742386Y-403098D01*
X28738474Y-388670D01*
X28734156Y-374853D01*
X28729482Y-361645D01*
X28724352Y-349046D01*
X28718814Y-337058D01*
X28712922Y-325678D01*
X28706572Y-314909D01*
X28699815Y-304749D01*
X28692703Y-295198D01*
X28685134Y-286207D01*
X28677209Y-277876D01*
X28668878Y-270154D01*
X28660089Y-263042D01*
X28650946Y-256540D01*
X28642513Y-251307D01*
X28633623Y-246430D01*
X28624326Y-241858D01*
X28614522Y-237642D01*
X28604260Y-233781D01*
X28593542Y-230225D01*
X28582365Y-227025D01*
X28570732Y-224180D01*
X28558642Y-221640D01*
X28546094Y-219456D01*
X28533089Y-217576D01*
X28519627Y-216052D01*
X28505708Y-214884D01*
X28491332Y-214020D01*
X28476498Y-213512D01*
G37*
G36*
X21275802Y-213360D02*
G01*
X21261832Y-213563D01*
X21248217Y-214172D01*
X21234908Y-215239D01*
X21221954Y-216662D01*
X21209254Y-218541D01*
X21196909Y-220827D01*
X21184920Y-223469D01*
X21173186Y-226567D01*
X21161857Y-230124D01*
X21150783Y-234035D01*
X21140064Y-238353D01*
X21129599Y-243128D01*
X21119541Y-248310D01*
X21109736Y-253898D01*
X21100288Y-259892D01*
X21091194Y-266293D01*
X21082355Y-273100D01*
X21073872Y-280365D01*
X21065693Y-287985D01*
X21057870Y-296062D01*
X21050351Y-304546D01*
X21043138Y-313436D01*
X21037296Y-321310D01*
X21031708Y-329488D01*
X21026323Y-337972D01*
X21021192Y-346760D01*
X21011591Y-365201D01*
X21007171Y-374904D01*
X21002955Y-384911D01*
X20998942Y-395224D01*
X20995182Y-405841D01*
X20991626Y-416763D01*
X20988324Y-427939D01*
X20985226Y-439470D01*
X20982381Y-451307D01*
X20979739Y-463448D01*
X20975167Y-488594D01*
X20971510Y-515010D01*
X20968766Y-542594D01*
X20966938Y-571449D01*
X20966023Y-601472D01*
X20966023Y-631698D01*
X20966379Y-646226D01*
X20966988Y-660450D01*
X20968919Y-688187D01*
X20971764Y-714908D01*
X20975624Y-740664D01*
X20977860Y-753160D01*
X20983143Y-777392D01*
X20986140Y-789127D01*
X20989340Y-800608D01*
X20992795Y-811834D01*
X20996503Y-822858D01*
X21000466Y-833577D01*
X21004631Y-844042D01*
X21009051Y-854303D01*
X21013724Y-864311D01*
X21018601Y-874014D01*
X21023732Y-883513D01*
X21029117Y-892759D01*
X21034756Y-901750D01*
X21040598Y-910488D01*
X21046694Y-918971D01*
X21054161Y-928624D01*
X21061934Y-937818D01*
X21069960Y-946607D01*
X21078240Y-954887D01*
X21086826Y-962761D01*
X21095665Y-970178D01*
X21104758Y-977137D01*
X21114156Y-983640D01*
X21123808Y-989736D01*
X21133714Y-995324D01*
X21143925Y-1000506D01*
X21154390Y-1005230D01*
X21165108Y-1009497D01*
X21176132Y-1013307D01*
X21187410Y-1016660D01*
X21198992Y-1019606D01*
X21210828Y-1022045D01*
X21222919Y-1024077D01*
X21235263Y-1025652D01*
X21247912Y-1026769D01*
X21260816Y-1027480D01*
X21274024Y-1027684D01*
X21285403Y-1027531D01*
X21296731Y-1027074D01*
X21308110Y-1026261D01*
X21319439Y-1025194D01*
X21342096Y-1022096D01*
X21353424Y-1020064D01*
X21364752Y-1017727D01*
X21376030Y-1015085D01*
X21387358Y-1012139D01*
X21409914Y-1005281D01*
X21421191Y-1001369D01*
X21443746Y-992682D01*
X21454973Y-987856D01*
X21477478Y-977239D01*
X21488704Y-971499D01*
X21511158Y-959053D01*
X21522385Y-952347D01*
X21533612Y-945337D01*
X21544788Y-938021D01*
X21544788Y-602996D01*
X21264118Y-602996D01*
X21264118Y-696722D01*
X21435822Y-696722D01*
X21435822Y-893571D01*
X21426424Y-899668D01*
X21416111Y-905357D01*
X21404884Y-910742D01*
X21392794Y-915720D01*
X21379840Y-920292D01*
X21365972Y-924560D01*
X21351849Y-928369D01*
X21337828Y-931468D01*
X21324011Y-933907D01*
X21310295Y-935634D01*
X21296782Y-936650D01*
X21283422Y-937006D01*
X21273566Y-936802D01*
X21263914Y-936193D01*
X21254567Y-935228D01*
X21245423Y-933805D01*
X21236584Y-932027D01*
X21227948Y-929792D01*
X21219566Y-927201D01*
X21211438Y-924204D01*
X21203564Y-920800D01*
X21195944Y-916990D01*
X21188578Y-912825D01*
X21181466Y-908202D01*
X21174608Y-903224D01*
X21168004Y-897788D01*
X21161603Y-891997D01*
X21155507Y-885799D01*
X21149614Y-879195D01*
X21143976Y-872185D01*
X21138642Y-864819D01*
X21133511Y-856996D01*
X21128634Y-848817D01*
X21124011Y-840181D01*
X21119642Y-831189D01*
X21115528Y-821791D01*
X21111616Y-811987D01*
X21108009Y-801776D01*
X21104656Y-791210D01*
X21101507Y-780186D01*
X21098662Y-768807D01*
X21096020Y-756970D01*
X21093633Y-744778D01*
X21091499Y-732180D01*
X21089670Y-719175D01*
X21086622Y-691997D01*
X21085505Y-677773D01*
X21084641Y-663194D01*
X21083625Y-632764D01*
X21083625Y-600710D01*
X21083981Y-584962D01*
X21085403Y-554736D01*
X21086470Y-540359D01*
X21089315Y-512876D01*
X21091093Y-499821D01*
X21093074Y-487172D01*
X21097798Y-463346D01*
X21100542Y-452120D01*
X21103488Y-441299D01*
X21106688Y-430987D01*
X21110092Y-421081D01*
X21113750Y-411632D01*
X21117661Y-402691D01*
X21121776Y-394157D01*
X21126145Y-386080D01*
X21130768Y-378460D01*
X21137778Y-368300D01*
X21145347Y-358851D01*
X21153374Y-350164D01*
X21162010Y-342239D01*
X21171103Y-335076D01*
X21180755Y-328676D01*
X21190966Y-323037D01*
X21201684Y-318109D01*
X21212911Y-313994D01*
X21224697Y-310591D01*
X21236990Y-307949D01*
X21249843Y-306070D01*
X21263203Y-304901D01*
X21277072Y-304546D01*
X21289060Y-304901D01*
X21300643Y-305917D01*
X21311870Y-307594D01*
X21322741Y-309981D01*
X21333256Y-313029D01*
X21343366Y-316738D01*
X21353068Y-321106D01*
X21362466Y-326186D01*
X21371458Y-331978D01*
X21380094Y-338378D01*
X21388324Y-345490D01*
X21396198Y-353263D01*
X21403665Y-361746D01*
X21410828Y-370890D01*
X21417584Y-380695D01*
X21423934Y-391210D01*
X21429929Y-402336D01*
X21435568Y-414223D01*
X21440851Y-426720D01*
X21445728Y-439928D01*
X21545804Y-407162D01*
X21541486Y-395224D01*
X21536863Y-383692D01*
X21531986Y-372516D01*
X21526855Y-361746D01*
X21521470Y-351332D01*
X21515781Y-341274D01*
X21509888Y-331622D01*
X21503690Y-322376D01*
X21497239Y-313486D01*
X21490533Y-304952D01*
X21483523Y-296824D01*
X21476258Y-289052D01*
X21468791Y-281686D01*
X21461018Y-274675D01*
X21452941Y-268071D01*
X21444661Y-261823D01*
X21436076Y-255930D01*
X21427236Y-250444D01*
X21418143Y-245364D01*
X21408796Y-240588D01*
X21399144Y-236270D01*
X21389238Y-232308D01*
X21379129Y-228701D01*
X21368664Y-225450D01*
X21357996Y-222656D01*
X21347074Y-220167D01*
X21335847Y-218084D01*
X21324366Y-216408D01*
X21312632Y-215087D01*
X21300592Y-214121D01*
X21288349Y-213563D01*
G37*
G36*
X19099530Y-213360D02*
G01*
X19086220Y-213563D01*
X19073215Y-214223D01*
X19060464Y-215290D01*
X19048069Y-216763D01*
X19035928Y-218694D01*
X19024092Y-221030D01*
X19012560Y-223824D01*
X19001333Y-226974D01*
X18990411Y-230632D01*
X18979743Y-234645D01*
X18969431Y-239115D01*
X18959372Y-244043D01*
X18949619Y-249377D01*
X18940170Y-255117D01*
X18931026Y-261315D01*
X18922136Y-267919D01*
X18913602Y-274929D01*
X18905321Y-282397D01*
X18897346Y-290271D01*
X18889675Y-298602D01*
X18882309Y-307340D01*
X18875248Y-316484D01*
X18869507Y-324561D01*
X18863970Y-332892D01*
X18858687Y-341528D01*
X18853607Y-350469D01*
X18848781Y-359613D01*
X18844158Y-369112D01*
X18839738Y-378866D01*
X18835573Y-388874D01*
X18831610Y-399186D01*
X18827902Y-409752D01*
X18824397Y-420624D01*
X18821146Y-431749D01*
X18818098Y-443179D01*
X18812662Y-466851D01*
X18810325Y-479094D01*
X18806261Y-504443D01*
X18803112Y-530910D01*
X18801842Y-544525D01*
X18800064Y-572668D01*
X18799149Y-601929D01*
X18799048Y-616966D01*
X18916904Y-616966D01*
X18917005Y-600760D01*
X18918021Y-569569D01*
X18920053Y-540156D01*
X18923101Y-512470D01*
X18924981Y-499262D01*
X18927165Y-486511D01*
X18929553Y-474167D01*
X18932194Y-462280D01*
X18935141Y-450799D01*
X18938290Y-439775D01*
X18941694Y-429158D01*
X18945352Y-418998D01*
X18949263Y-409244D01*
X18953429Y-399948D01*
X18957899Y-391109D01*
X18962573Y-382625D01*
X18967500Y-374650D01*
X18972682Y-367080D01*
X18978118Y-359918D01*
X18983807Y-353212D01*
X18989751Y-346964D01*
X18995948Y-341122D01*
X19002400Y-335686D01*
X19009106Y-330708D01*
X19016065Y-326186D01*
X19023279Y-322072D01*
X19030746Y-318414D01*
X19038468Y-315163D01*
X19046393Y-312318D01*
X19054622Y-309930D01*
X19063106Y-308000D01*
X19071844Y-306476D01*
X19080835Y-305409D01*
X19090030Y-304749D01*
X19099530Y-304546D01*
X19108978Y-304749D01*
X19118122Y-305409D01*
X19127063Y-306476D01*
X19135750Y-308000D01*
X19144183Y-309930D01*
X19152362Y-312318D01*
X19160286Y-315163D01*
X19167957Y-318414D01*
X19175374Y-322072D01*
X19182537Y-326186D01*
X19189446Y-330708D01*
X19196100Y-335686D01*
X19202552Y-341122D01*
X19208699Y-346964D01*
X19214592Y-353212D01*
X19220281Y-359918D01*
X19225666Y-367080D01*
X19230848Y-374650D01*
X19235724Y-382676D01*
X19240398Y-391109D01*
X19244818Y-399948D01*
X19248932Y-409244D01*
X19252844Y-418998D01*
X19256502Y-429158D01*
X19259905Y-439775D01*
X19263004Y-450799D01*
X19265900Y-462280D01*
X19268541Y-474167D01*
X19270929Y-486511D01*
X19273113Y-499262D01*
X19274993Y-512470D01*
X19276618Y-526084D01*
X19277990Y-540156D01*
X19280022Y-569569D01*
X19281038Y-600760D01*
X19281038Y-632358D01*
X19280733Y-647395D01*
X19279412Y-676402D01*
X19277279Y-703884D01*
X19274231Y-729894D01*
X19272402Y-742340D01*
X19270370Y-754430D01*
X19268084Y-766165D01*
X19265595Y-777494D01*
X19262902Y-788466D01*
X19256857Y-809345D01*
X19253504Y-819200D01*
X19249948Y-828700D01*
X19246189Y-837793D01*
X19242176Y-846582D01*
X19237960Y-854964D01*
X19231508Y-866241D01*
X19224498Y-876706D01*
X19216979Y-886358D01*
X19208902Y-895146D01*
X19200317Y-903122D01*
X19191173Y-910234D01*
X19181521Y-916482D01*
X19171310Y-921918D01*
X19160591Y-926541D01*
X19149364Y-930300D01*
X19137579Y-933246D01*
X19125234Y-935329D01*
X19112382Y-936599D01*
X19099022Y-937006D01*
X19086423Y-936599D01*
X19074282Y-935329D01*
X19062598Y-933297D01*
X19051320Y-930402D01*
X19040500Y-926693D01*
X19030137Y-922121D01*
X19020231Y-916736D01*
X19010731Y-910539D01*
X19001689Y-903528D01*
X18993104Y-895654D01*
X18984925Y-886968D01*
X18977203Y-877468D01*
X18969939Y-867156D01*
X18963132Y-855980D01*
X18958610Y-847699D01*
X18954343Y-839063D01*
X18950279Y-830021D01*
X18946469Y-820572D01*
X18942913Y-810768D01*
X18939560Y-800557D01*
X18936411Y-789940D01*
X18930874Y-767588D01*
X18926251Y-743712D01*
X18922542Y-718261D01*
X18919799Y-691235D01*
X18918732Y-677164D01*
X18917920Y-662686D01*
X18917005Y-632612D01*
X18916904Y-616966D01*
X18799048Y-616966D01*
X18799149Y-632256D01*
X18800064Y-662076D01*
X18801892Y-690676D01*
X18803112Y-704596D01*
X18804585Y-718210D01*
X18808242Y-744575D01*
X18810376Y-757326D01*
X18812764Y-769772D01*
X18815405Y-781964D01*
X18818250Y-793902D01*
X18821298Y-805484D01*
X18824600Y-816813D01*
X18828105Y-827887D01*
X18831864Y-838657D01*
X18835827Y-849121D01*
X18839992Y-859332D01*
X18844412Y-869238D01*
X18849086Y-878890D01*
X18853962Y-888237D01*
X18859093Y-897280D01*
X18864427Y-906068D01*
X18869964Y-914552D01*
X18875756Y-922782D01*
X18882868Y-932078D01*
X18890284Y-940968D01*
X18897955Y-949452D01*
X18905931Y-957478D01*
X18914211Y-965047D01*
X18922746Y-972210D01*
X18931585Y-978916D01*
X18940729Y-985215D01*
X18950127Y-991057D01*
X18959830Y-996492D01*
X18969786Y-1001471D01*
X18980048Y-1005992D01*
X18990614Y-1010107D01*
X19001486Y-1013815D01*
X19012611Y-1017066D01*
X19023990Y-1019860D01*
X19035725Y-1022248D01*
X19047714Y-1024229D01*
X19059956Y-1025753D01*
X19072555Y-1026820D01*
X19085356Y-1027480D01*
X19098514Y-1027684D01*
X19111569Y-1027480D01*
X19124371Y-1026820D01*
X19136868Y-1025702D01*
X19149110Y-1024178D01*
X19161048Y-1022197D01*
X19172732Y-1019759D01*
X19184112Y-1016863D01*
X19195186Y-1013561D01*
X19206057Y-1009853D01*
X19216573Y-1005636D01*
X19226834Y-1001014D01*
X19236842Y-995934D01*
X19246545Y-990447D01*
X19255943Y-984503D01*
X19265087Y-978103D01*
X19273977Y-971245D01*
X19282562Y-963980D01*
X19290842Y-956259D01*
X19298869Y-948131D01*
X19306641Y-939495D01*
X19314109Y-930503D01*
X19321272Y-921003D01*
X19327114Y-912672D01*
X19332752Y-904036D01*
X19338188Y-895197D01*
X19343370Y-886053D01*
X19348297Y-876604D01*
X19353022Y-866952D01*
X19357492Y-856996D01*
X19361759Y-846785D01*
X19365772Y-836269D01*
X19369582Y-825550D01*
X19373138Y-814527D01*
X19379590Y-791667D01*
X19382435Y-779830D01*
X19385076Y-767740D01*
X19387515Y-755345D01*
X19389699Y-742746D01*
X19393357Y-716686D01*
X19394881Y-703224D01*
X19397167Y-675538D01*
X19397980Y-661314D01*
X19398894Y-632002D01*
X19398894Y-601675D01*
X19397980Y-572058D01*
X19396151Y-543560D01*
X19393408Y-516229D01*
X19389750Y-490067D01*
X19387566Y-477418D01*
X19385178Y-465074D01*
X19382536Y-453034D01*
X19379692Y-441248D01*
X19376593Y-429768D01*
X19373291Y-418592D01*
X19369735Y-407720D01*
X19365976Y-397154D01*
X19361962Y-386842D01*
X19357746Y-376834D01*
X19353326Y-367131D01*
X19348602Y-357682D01*
X19343725Y-348538D01*
X19338594Y-339699D01*
X19333210Y-331165D01*
X19327622Y-322935D01*
X19321780Y-314960D01*
X19314617Y-305917D01*
X19307149Y-297332D01*
X19299377Y-289153D01*
X19291401Y-281381D01*
X19283070Y-274015D01*
X19274536Y-267106D01*
X19265646Y-260604D01*
X19256552Y-254508D01*
X19247154Y-248818D01*
X19237452Y-243586D01*
X19227495Y-238760D01*
X19217233Y-234340D01*
X19206718Y-230378D01*
X19195948Y-226771D01*
X19184823Y-223621D01*
X19173494Y-220929D01*
X19161861Y-218592D01*
X19149974Y-216712D01*
X19137782Y-215239D01*
X19125285Y-214223D01*
X19112534Y-213563D01*
G37*
G36*
X18399506Y-213360D02*
G01*
X18377458Y-213867D01*
X18366740Y-214528D01*
X18345912Y-216560D01*
X18335802Y-217982D01*
X18325846Y-219659D01*
X18316143Y-221589D01*
X18306643Y-223774D01*
X18297296Y-226212D01*
X18279262Y-231902D01*
X18270575Y-235102D01*
X18262041Y-238607D01*
X18253710Y-242316D01*
X18237708Y-250545D01*
X18229986Y-255066D01*
X18222468Y-259842D01*
X18215152Y-264820D01*
X18208040Y-270103D01*
X18201132Y-275640D01*
X18194426Y-281432D01*
X18187924Y-287477D01*
X18181574Y-293776D01*
X18175478Y-300380D01*
X18169585Y-307187D01*
X18163844Y-314248D01*
X18153024Y-329184D01*
X18143016Y-345135D01*
X18138292Y-353517D01*
X18129504Y-371043D01*
X18125389Y-380136D01*
X18121477Y-389534D01*
X18117769Y-399186D01*
X18114264Y-409092D01*
X18110962Y-419303D01*
X18107863Y-429717D01*
X18102224Y-451307D01*
X18097449Y-473964D01*
X18095315Y-485698D01*
X18091708Y-509879D01*
X18088914Y-535127D01*
X18087797Y-548132D01*
X18086222Y-574903D01*
X18085409Y-602691D01*
X18085409Y-632104D01*
X18086425Y-661568D01*
X18088356Y-689965D01*
X18089727Y-703732D01*
X18093182Y-730453D01*
X18095264Y-743407D01*
X18097601Y-756056D01*
X18100192Y-768502D01*
X18102986Y-780643D01*
X18106085Y-792480D01*
X18109387Y-804062D01*
X18112943Y-815390D01*
X18116753Y-826414D01*
X18120817Y-837184D01*
X18125135Y-847699D01*
X18129656Y-857910D01*
X18134431Y-867816D01*
X18139511Y-877519D01*
X18144794Y-886917D01*
X18150281Y-896010D01*
X18156072Y-904900D01*
X18162117Y-913485D01*
X18168366Y-921766D01*
X18176036Y-931164D01*
X18184012Y-940155D01*
X18192292Y-948690D01*
X18200827Y-956767D01*
X18209666Y-964437D01*
X18218861Y-971651D01*
X18228310Y-978458D01*
X18238012Y-984808D01*
X18248071Y-990701D01*
X18258383Y-996187D01*
X18269000Y-1001217D01*
X18279922Y-1005789D01*
X18291149Y-1009954D01*
X18302681Y-1013663D01*
X18314466Y-1016965D01*
X18326557Y-1019810D01*
X18338952Y-1022197D01*
X18351652Y-1024178D01*
X18364606Y-1025702D01*
X18377916Y-1026820D01*
X18391479Y-1027480D01*
X18405348Y-1027684D01*
X18416778Y-1027480D01*
X18428004Y-1026921D01*
X18439028Y-1026007D01*
X18449848Y-1024686D01*
X18460516Y-1022959D01*
X18470981Y-1020876D01*
X18481294Y-1018438D01*
X18491403Y-1015593D01*
X18501309Y-1012393D01*
X18511012Y-1008837D01*
X18520562Y-1004874D01*
X18529909Y-1000556D01*
X18539104Y-995832D01*
X18548045Y-990752D01*
X18556833Y-985266D01*
X18565469Y-979424D01*
X18573902Y-973175D01*
X18582081Y-966622D01*
X18590158Y-959612D01*
X18597981Y-952296D01*
X18605652Y-944524D01*
X18613170Y-936447D01*
X18620435Y-927963D01*
X18627547Y-919073D01*
X18634456Y-909878D01*
X18641212Y-900226D01*
X18647714Y-890269D01*
X18654115Y-879906D01*
X18660262Y-869137D01*
X18666256Y-858012D01*
X18672048Y-846531D01*
X18677636Y-834644D01*
X18683071Y-822401D01*
X18688304Y-809752D01*
X18595086Y-771652D01*
X18589447Y-785520D01*
X18583554Y-798779D01*
X18577509Y-811377D01*
X18571260Y-823366D01*
X18564758Y-834745D01*
X18558052Y-845515D01*
X18551144Y-855624D01*
X18544082Y-865124D01*
X18536767Y-874014D01*
X18529198Y-882243D01*
X18521476Y-889863D01*
X18513552Y-896874D01*
X18503849Y-904494D01*
X18493892Y-911301D01*
X18483732Y-917346D01*
X18473369Y-922578D01*
X18462752Y-926947D01*
X18451931Y-930605D01*
X18440857Y-933399D01*
X18429579Y-935380D01*
X18418098Y-936599D01*
X18406364Y-937006D01*
X18393664Y-936701D01*
X18381421Y-935736D01*
X18369534Y-934212D01*
X18358104Y-932027D01*
X18347080Y-929182D01*
X18336463Y-925779D01*
X18326303Y-921715D01*
X18316498Y-916990D01*
X18307151Y-911707D01*
X18298210Y-905764D01*
X18289676Y-899210D01*
X18281548Y-891997D01*
X18273826Y-884174D01*
X18266562Y-875741D01*
X18259653Y-866698D01*
X18253202Y-856996D01*
X18248325Y-848817D01*
X18243702Y-840181D01*
X18239333Y-831189D01*
X18235168Y-821791D01*
X18231307Y-811987D01*
X18227700Y-801776D01*
X18224296Y-791210D01*
X18221198Y-780186D01*
X18218302Y-768807D01*
X18215660Y-756970D01*
X18213273Y-744778D01*
X18211190Y-732180D01*
X18209310Y-719175D01*
X18207685Y-705764D01*
X18205145Y-677773D01*
X18204281Y-663194D01*
X18203265Y-632764D01*
X18203265Y-601065D01*
X18204230Y-570585D01*
X18206161Y-541782D01*
X18209056Y-514705D01*
X18210885Y-501802D01*
X18212917Y-489305D01*
X18217743Y-465632D01*
X18220537Y-454456D01*
X18223534Y-443687D01*
X18226786Y-433324D01*
X18230291Y-423418D01*
X18234050Y-413918D01*
X18238012Y-404876D01*
X18242280Y-396240D01*
X18246699Y-388010D01*
X18251424Y-380238D01*
X18258586Y-369824D01*
X18266257Y-360172D01*
X18274487Y-351282D01*
X18283275Y-343154D01*
X18292521Y-335838D01*
X18302376Y-329285D01*
X18312688Y-323443D01*
X18323560Y-318465D01*
X18334990Y-314198D01*
X18346928Y-310743D01*
X18359424Y-308000D01*
X18372429Y-306070D01*
X18385942Y-304952D01*
X18400014Y-304546D01*
X18411952Y-304952D01*
X18423636Y-306070D01*
X18434964Y-308000D01*
X18446038Y-310743D01*
X18456859Y-314198D01*
X18467324Y-318465D01*
X18477534Y-323443D01*
X18487491Y-329234D01*
X18497092Y-335838D01*
X18506440Y-343154D01*
X18515380Y-351078D01*
X18523864Y-359613D01*
X18531840Y-368655D01*
X18539307Y-378256D01*
X18546318Y-388416D01*
X18552820Y-399135D01*
X18558865Y-410413D01*
X18564402Y-422249D01*
X18569432Y-434593D01*
X18574004Y-447548D01*
X18672556Y-409448D01*
X18667780Y-397408D01*
X18662751Y-385724D01*
X18657519Y-374396D01*
X18652032Y-363474D01*
X18646241Y-352958D01*
X18640298Y-342798D01*
X18634049Y-333044D01*
X18627598Y-323646D01*
X18620892Y-314655D01*
X18613932Y-306019D01*
X18606719Y-297789D01*
X18599251Y-289966D01*
X18591580Y-282498D01*
X18583656Y-275386D01*
X18575477Y-268681D01*
X18567095Y-262382D01*
X18558408Y-256438D01*
X18549518Y-250901D01*
X18540374Y-245719D01*
X18531027Y-240944D01*
X18521375Y-236524D01*
X18511520Y-232511D01*
X18501410Y-228854D01*
X18491047Y-225602D01*
X18480481Y-222758D01*
X18469610Y-220268D01*
X18458535Y-218135D01*
X18447207Y-216408D01*
X18435675Y-215087D01*
X18423839Y-214121D01*
X18411799Y-213563D01*
G37*
G36*
X13354557Y-213360D02*
G01*
X13340588Y-213563D01*
X13326922Y-214172D01*
X13313613Y-215239D01*
X13300608Y-216662D01*
X13287959Y-218541D01*
X13275563Y-220827D01*
X13263575Y-223469D01*
X13251840Y-226567D01*
X13240461Y-230124D01*
X13229386Y-234035D01*
X13218668Y-238353D01*
X13208254Y-243128D01*
X13198144Y-248310D01*
X13188391Y-253898D01*
X13178942Y-259892D01*
X13169849Y-266293D01*
X13161010Y-273100D01*
X13152577Y-280365D01*
X13144398Y-287985D01*
X13136575Y-296062D01*
X13129056Y-304546D01*
X13121894Y-313436D01*
X13116051Y-321310D01*
X13110413Y-329488D01*
X13105028Y-337972D01*
X13099897Y-346760D01*
X13094969Y-355854D01*
X13090245Y-365201D01*
X13085775Y-374904D01*
X13081558Y-384911D01*
X13077545Y-395224D01*
X13073786Y-405841D01*
X13070230Y-416763D01*
X13066877Y-427939D01*
X13063778Y-439470D01*
X13060934Y-451307D01*
X13058292Y-463448D01*
X13053720Y-488594D01*
X13051739Y-501650D01*
X13048538Y-528675D01*
X13047268Y-542594D01*
X13045440Y-571449D01*
X13044525Y-601472D01*
X13044525Y-631698D01*
X13044881Y-646226D01*
X13045490Y-660450D01*
X13047421Y-688187D01*
X13048742Y-701649D01*
X13052094Y-727913D01*
X13054126Y-740664D01*
X13058902Y-765403D01*
X13061696Y-777392D01*
X13064693Y-789127D01*
X13067893Y-800608D01*
X13071398Y-811834D01*
X13075107Y-822858D01*
X13079069Y-833577D01*
X13083235Y-844042D01*
X13087705Y-854303D01*
X13092379Y-864311D01*
X13097306Y-874014D01*
X13102437Y-883513D01*
X13107822Y-892759D01*
X13113461Y-901750D01*
X13119354Y-910488D01*
X13125450Y-918971D01*
X13132917Y-928624D01*
X13140690Y-937818D01*
X13148716Y-946607D01*
X13156996Y-954887D01*
X13165582Y-962761D01*
X13174421Y-970178D01*
X13183514Y-977137D01*
X13192912Y-983640D01*
X13202564Y-989736D01*
X13212470Y-995324D01*
X13222681Y-1000506D01*
X13233146Y-1005230D01*
X13243864Y-1009497D01*
X13254888Y-1013307D01*
X13266166Y-1016660D01*
X13277748Y-1019606D01*
X13289584Y-1022045D01*
X13301675Y-1024077D01*
X13314019Y-1025652D01*
X13326668Y-1026769D01*
X13339572Y-1027480D01*
X13352780Y-1027684D01*
X13364159Y-1027531D01*
X13375487Y-1027074D01*
X13386866Y-1026261D01*
X13398195Y-1025194D01*
X13420851Y-1022096D01*
X13432180Y-1020064D01*
X13443508Y-1017727D01*
X13454786Y-1015085D01*
X13466114Y-1012139D01*
X13488669Y-1005281D01*
X13499947Y-1001369D01*
X13522502Y-992682D01*
X13533729Y-987856D01*
X13556234Y-977239D01*
X13567460Y-971499D01*
X13589914Y-959053D01*
X13601141Y-952347D01*
X13612368Y-945337D01*
X13623544Y-938021D01*
X13623544Y-602996D01*
X13342874Y-602996D01*
X13342874Y-696722D01*
X13514578Y-696722D01*
X13514578Y-893571D01*
X13505078Y-899668D01*
X13494715Y-905357D01*
X13483539Y-910742D01*
X13471448Y-915720D01*
X13458545Y-920292D01*
X13444728Y-924560D01*
X13430605Y-928369D01*
X13416584Y-931468D01*
X13402767Y-933907D01*
X13389051Y-935634D01*
X13375538Y-936650D01*
X13362178Y-937006D01*
X13352322Y-936802D01*
X13342670Y-936193D01*
X13333323Y-935228D01*
X13324179Y-933805D01*
X13315340Y-932027D01*
X13306704Y-929792D01*
X13298322Y-927201D01*
X13290194Y-924204D01*
X13282320Y-920800D01*
X13274700Y-916990D01*
X13267334Y-912825D01*
X13260222Y-908202D01*
X13253364Y-903224D01*
X13246760Y-897788D01*
X13240359Y-891997D01*
X13234263Y-885799D01*
X13228370Y-879195D01*
X13222732Y-872185D01*
X13217398Y-864819D01*
X13212267Y-856996D01*
X13207390Y-848817D01*
X13202767Y-840181D01*
X13198398Y-831189D01*
X13194284Y-821791D01*
X13190372Y-811987D01*
X13186765Y-801776D01*
X13183412Y-791210D01*
X13180263Y-780186D01*
X13177418Y-768807D01*
X13174776Y-756970D01*
X13172389Y-744778D01*
X13170255Y-732180D01*
X13168426Y-719175D01*
X13165378Y-691997D01*
X13164261Y-677773D01*
X13163397Y-663194D01*
X13162381Y-632764D01*
X13162381Y-600710D01*
X13162737Y-584962D01*
X13164159Y-554736D01*
X13165226Y-540359D01*
X13168071Y-512876D01*
X13169849Y-499821D01*
X13171830Y-487172D01*
X13174065Y-475030D01*
X13176554Y-463346D01*
X13179298Y-452120D01*
X13182244Y-441299D01*
X13185444Y-430987D01*
X13188848Y-421081D01*
X13192506Y-411632D01*
X13196417Y-402691D01*
X13200532Y-394157D01*
X13204901Y-386080D01*
X13209524Y-378460D01*
X13216483Y-368300D01*
X13224001Y-358851D01*
X13232028Y-350164D01*
X13240613Y-342239D01*
X13249706Y-335076D01*
X13259358Y-328676D01*
X13269518Y-323037D01*
X13280237Y-318109D01*
X13291464Y-313994D01*
X13303199Y-310591D01*
X13315492Y-307949D01*
X13328345Y-306070D01*
X13341705Y-304901D01*
X13355574Y-304546D01*
X13367562Y-304901D01*
X13379196Y-305917D01*
X13390473Y-307594D01*
X13401344Y-309981D01*
X13411860Y-313029D01*
X13421969Y-316738D01*
X13431723Y-321106D01*
X13441121Y-326186D01*
X13450112Y-331978D01*
X13458748Y-338378D01*
X13467029Y-345490D01*
X13474903Y-353263D01*
X13482421Y-361746D01*
X13489533Y-370890D01*
X13496290Y-380695D01*
X13502690Y-391210D01*
X13508685Y-402336D01*
X13514324Y-414223D01*
X13519607Y-426720D01*
X13524484Y-439928D01*
X13624560Y-407162D01*
X13620242Y-395224D01*
X13615619Y-383692D01*
X13610742Y-372516D01*
X13605611Y-361746D01*
X13600226Y-351332D01*
X13594537Y-341274D01*
X13588644Y-331622D01*
X13582446Y-322376D01*
X13575995Y-313486D01*
X13569289Y-304952D01*
X13562279Y-296824D01*
X13555014Y-289052D01*
X13547547Y-281686D01*
X13539774Y-274675D01*
X13531697Y-268071D01*
X13523417Y-261823D01*
X13514832Y-255930D01*
X13505992Y-250444D01*
X13496899Y-245364D01*
X13487552Y-240588D01*
X13477900Y-236270D01*
X13467994Y-232308D01*
X13457885Y-228701D01*
X13447420Y-225450D01*
X13436752Y-222656D01*
X13425830Y-220167D01*
X13414603Y-218084D01*
X13403122Y-216408D01*
X13391388Y-215087D01*
X13379348Y-214121D01*
X13367105Y-213563D01*
G37*
G36*
X33906206Y-225552D02*
G01*
X33906206Y-316992D01*
X34165794Y-316992D01*
X34165794Y-1016000D01*
X34277046Y-1016000D01*
X34277046Y-316992D01*
X34536634Y-316992D01*
X34536634Y-225552D01*
G37*
G36*
X33217103Y-225552D02*
G01*
X33217103Y-1016000D01*
X33310830Y-1016000D01*
X33310830Y-507492D01*
X33308544Y-330962D01*
X33331810Y-403453D01*
X33349336Y-456996D01*
X33361172Y-491490D01*
X33462214Y-758190D01*
X33542477Y-758190D01*
X33641182Y-494182D01*
X33653882Y-456996D01*
X33669782Y-408228D01*
X33694116Y-330962D01*
X33691423Y-416458D01*
X33690712Y-463600D01*
X33690560Y-492048D01*
X33690560Y-1016000D01*
X33785556Y-1016000D01*
X33785556Y-225552D01*
X33653730Y-225552D01*
X33545272Y-512572D01*
X33519618Y-594614D01*
X33504377Y-647446D01*
X33487664Y-586028D01*
X33480552Y-561390D01*
X33474355Y-540867D01*
X33468970Y-524408D01*
X33464500Y-512064D01*
X33356042Y-225552D01*
G37*
G36*
X32535114Y-225552D02*
G01*
X32535114Y-1016000D01*
X32647127Y-1016000D01*
X32647127Y-699008D01*
X33043114Y-699008D01*
X33043114Y-606552D01*
X32647127Y-606552D01*
X32647127Y-316992D01*
X33057338Y-316992D01*
X33057338Y-225552D01*
G37*
G36*
X31796227Y-225552D02*
G01*
X31796227Y-315214D01*
X32067500Y-315214D01*
X32082028Y-315417D01*
X32095998Y-316128D01*
X32109308Y-317246D01*
X32122008Y-318820D01*
X32134048Y-320903D01*
X32145528Y-323392D01*
X32156349Y-326339D01*
X32166560Y-329742D01*
X32176161Y-333552D01*
X32185152Y-337870D01*
X32193484Y-342646D01*
X32201256Y-347827D01*
X32208368Y-353517D01*
X32214870Y-359664D01*
X32220712Y-366217D01*
X32225996Y-373227D01*
X32230618Y-380695D01*
X32234682Y-388670D01*
X32238086Y-397052D01*
X32240880Y-405892D01*
X32243014Y-415188D01*
X32244588Y-424942D01*
X32245503Y-435101D01*
X32245808Y-445770D01*
X32245350Y-459435D01*
X32244030Y-472440D01*
X32241744Y-484784D01*
X32238594Y-496468D01*
X32234581Y-507542D01*
X32229602Y-517956D01*
X32223760Y-527761D01*
X32217055Y-536905D01*
X32209384Y-545388D01*
X32200850Y-553212D01*
X32193128Y-559155D01*
X32184848Y-564642D01*
X32176059Y-569569D01*
X32166712Y-573938D01*
X32156806Y-577850D01*
X32146341Y-581202D01*
X32135368Y-584047D01*
X32123837Y-586384D01*
X32111797Y-588213D01*
X32099199Y-589534D01*
X32086042Y-590296D01*
X32072326Y-590550D01*
X31908242Y-590550D01*
X31908242Y-315214D01*
X31796227Y-315214D01*
X31796227Y-1016000D01*
X31908242Y-1016000D01*
X31908242Y-679196D01*
X32047688Y-679196D01*
X32262064Y-1016000D01*
X32391096Y-1016000D01*
X32156653Y-666242D01*
X32169608Y-663854D01*
X32182155Y-660958D01*
X32194347Y-657656D01*
X32206184Y-653897D01*
X32217614Y-649681D01*
X32228637Y-645007D01*
X32239305Y-639876D01*
X32249618Y-634288D01*
X32259524Y-628294D01*
X32269074Y-621792D01*
X32278269Y-614832D01*
X32287057Y-607466D01*
X32295439Y-599592D01*
X32303465Y-591312D01*
X32311035Y-582625D01*
X32318045Y-573633D01*
X32324446Y-564388D01*
X32330339Y-554837D01*
X32335673Y-545033D01*
X32340397Y-534924D01*
X32344614Y-524560D01*
X32348271Y-513943D01*
X32351319Y-503021D01*
X32353859Y-491794D01*
X32355789Y-480314D01*
X32357212Y-468579D01*
X32358025Y-456539D01*
X32358330Y-444246D01*
X32358025Y-431241D01*
X32357212Y-418592D01*
X32355789Y-406349D01*
X32353859Y-394512D01*
X32351319Y-383032D01*
X32348271Y-371906D01*
X32344614Y-361238D01*
X32340448Y-350926D01*
X32335673Y-340969D01*
X32330339Y-331419D01*
X32324497Y-322224D01*
X32318045Y-313486D01*
X32311035Y-305054D01*
X32303465Y-297078D01*
X32295388Y-289458D01*
X32286702Y-282194D01*
X32278574Y-276098D01*
X32270039Y-270306D01*
X32261098Y-264871D01*
X32251751Y-259842D01*
X32241998Y-255117D01*
X32231888Y-250748D01*
X32221322Y-246684D01*
X32210349Y-243027D01*
X32199021Y-239725D01*
X32187235Y-236728D01*
X32175094Y-234137D01*
X32162546Y-231851D01*
X32149542Y-229920D01*
X32136181Y-228346D01*
X32122414Y-227126D01*
X32108241Y-226263D01*
X32093662Y-225704D01*
X32078676Y-225552D01*
G37*
G36*
X30282134Y-225552D02*
G01*
X30565852Y-673862D01*
X30565852Y-1016000D01*
X30676088Y-1016000D01*
X30676088Y-673862D01*
X30959552Y-225552D01*
X30839410Y-225552D01*
X30621477Y-583692D01*
X30402276Y-225552D01*
G37*
G36*
X29635958Y-225552D02*
G01*
X29635958Y-1016000D01*
X30198314Y-1016000D01*
X30198314Y-924560D01*
X29747972Y-924560D01*
X29747972Y-654558D01*
X30139132Y-654558D01*
X30139132Y-564134D01*
X29747972Y-564134D01*
X29747972Y-316992D01*
X30174438Y-316992D01*
X30174438Y-225552D01*
G37*
G36*
X28959810Y-225552D02*
G01*
X28959810Y-1016000D01*
X29465524Y-1016000D01*
X29465524Y-924560D01*
X29071570Y-924560D01*
X29071570Y-225552D01*
G37*
G36*
X27475688Y-225552D02*
G01*
X27475688Y-1016000D01*
X28038044Y-1016000D01*
X28038044Y-924560D01*
X27587448Y-924560D01*
X27587448Y-654558D01*
X27978862Y-654558D01*
X27978862Y-564134D01*
X27587448Y-564134D01*
X27587448Y-316992D01*
X28014168Y-316992D01*
X28014168Y-225552D01*
G37*
G36*
X26755344Y-225552D02*
G01*
X26755344Y-315214D01*
X27026870Y-315214D01*
X27041398Y-315417D01*
X27055318Y-316128D01*
X27068576Y-317246D01*
X27081276Y-318820D01*
X27093316Y-320903D01*
X27104746Y-323392D01*
X27115566Y-326339D01*
X27125777Y-329742D01*
X27135378Y-333552D01*
X27144319Y-337870D01*
X27152701Y-342646D01*
X27160423Y-347827D01*
X27167535Y-353517D01*
X27173986Y-359664D01*
X27179879Y-366217D01*
X27185162Y-373227D01*
X27189785Y-380695D01*
X27193798Y-388670D01*
X27197202Y-397052D01*
X27199996Y-405892D01*
X27202130Y-415188D01*
X27203704Y-424942D01*
X27204619Y-435101D01*
X27204924Y-445770D01*
X27204466Y-459435D01*
X27203146Y-472440D01*
X27200860Y-484784D01*
X27197710Y-496468D01*
X27193697Y-507542D01*
X27188718Y-517956D01*
X27182876Y-527761D01*
X27176171Y-536905D01*
X27168500Y-545388D01*
X27159965Y-553212D01*
X27152244Y-559155D01*
X27143964Y-564642D01*
X27135175Y-569569D01*
X27125828Y-573938D01*
X27115922Y-577850D01*
X27105457Y-581202D01*
X27094484Y-584047D01*
X27082953Y-586384D01*
X27070913Y-588213D01*
X27058315Y-589534D01*
X27045158Y-590296D01*
X27031442Y-590550D01*
X26867358Y-590550D01*
X26867358Y-315214D01*
X26755344Y-315214D01*
X26755344Y-1016000D01*
X26867358Y-1016000D01*
X26867358Y-679196D01*
X27006803Y-679196D01*
X27221180Y-1016000D01*
X27350212Y-1016000D01*
X27115770Y-666242D01*
X27128724Y-663854D01*
X27141271Y-660958D01*
X27153463Y-657656D01*
X27165300Y-653897D01*
X27176730Y-649681D01*
X27187753Y-645007D01*
X27198472Y-639876D01*
X27208734Y-634288D01*
X27218639Y-628294D01*
X27228190Y-621792D01*
X27237385Y-614832D01*
X27246173Y-607466D01*
X27254555Y-599592D01*
X27262582Y-591312D01*
X27270151Y-582625D01*
X27277161Y-573633D01*
X27283562Y-564388D01*
X27289455Y-554837D01*
X27294789Y-545033D01*
X27299513Y-534924D01*
X27303730Y-524560D01*
X27307387Y-513943D01*
X27310435Y-503021D01*
X27312975Y-491794D01*
X27314906Y-480314D01*
X27316328Y-468579D01*
X27317141Y-456539D01*
X27317446Y-444246D01*
X27317141Y-431241D01*
X27316328Y-418592D01*
X27314906Y-406349D01*
X27312975Y-394512D01*
X27310435Y-383032D01*
X27307387Y-371906D01*
X27303730Y-361238D01*
X27299513Y-350926D01*
X27294789Y-340969D01*
X27289455Y-331419D01*
X27283613Y-322224D01*
X27277161Y-313486D01*
X27270151Y-305054D01*
X27262582Y-297078D01*
X27254504Y-289458D01*
X27245818Y-282194D01*
X27237689Y-276098D01*
X27229155Y-270306D01*
X27220214Y-264871D01*
X27210867Y-259842D01*
X27201114Y-255117D01*
X27191004Y-250748D01*
X27180438Y-246684D01*
X27169465Y-243027D01*
X27158137Y-239725D01*
X27146351Y-236728D01*
X27134210Y-234137D01*
X27121662Y-231851D01*
X27108658Y-229920D01*
X27095297Y-228346D01*
X27081530Y-227126D01*
X27067357Y-226263D01*
X27052777Y-225704D01*
X27037792Y-225552D01*
G37*
G36*
X26035254Y-225552D02*
G01*
X26035254Y-315214D01*
X26291286Y-315214D01*
X26305814Y-315417D01*
X26319734Y-316077D01*
X26333094Y-317195D01*
X26345896Y-318719D01*
X26358138Y-320700D01*
X26369772Y-323138D01*
X26380897Y-325983D01*
X26391412Y-329285D01*
X26401369Y-333044D01*
X26410767Y-337210D01*
X26419556Y-341833D01*
X26427836Y-346913D01*
X26435507Y-352399D01*
X26442619Y-358394D01*
X26449172Y-364744D01*
X26455115Y-371602D01*
X26460500Y-378866D01*
X26465377Y-386537D01*
X26469644Y-394716D01*
X26473302Y-403301D01*
X26476452Y-412292D01*
X26478992Y-421792D01*
X26481024Y-431698D01*
X26482446Y-442061D01*
X26483259Y-452831D01*
X26483564Y-464058D01*
X26483208Y-476605D01*
X26482192Y-488696D01*
X26480414Y-500278D01*
X26478026Y-511454D01*
X26474877Y-522122D01*
X26471067Y-532333D01*
X26466546Y-542036D01*
X26461313Y-551332D01*
X26455420Y-560120D01*
X26448816Y-568452D01*
X26441501Y-576326D01*
X26433526Y-583692D01*
X26424940Y-590499D01*
X26415796Y-596747D01*
X26406195Y-602386D01*
X26396035Y-607415D01*
X26385367Y-611835D01*
X26374140Y-615696D01*
X26362456Y-618947D01*
X26350214Y-621639D01*
X26337463Y-623671D01*
X26324204Y-625195D01*
X26310437Y-626059D01*
X26296112Y-626364D01*
X26147268Y-626364D01*
X26147268Y-315214D01*
X26035254Y-315214D01*
X26035254Y-1016000D01*
X26147268Y-1016000D01*
X26147268Y-714756D01*
X26311860Y-714756D01*
X26325880Y-714552D01*
X26339647Y-713841D01*
X26353109Y-712724D01*
X26366317Y-711149D01*
X26379220Y-709168D01*
X26391870Y-706678D01*
X26404214Y-703783D01*
X26416304Y-700430D01*
X26428090Y-696620D01*
X26439571Y-692353D01*
X26450798Y-687628D01*
X26461720Y-682498D01*
X26474369Y-675843D01*
X26486408Y-668680D01*
X26497889Y-661009D01*
X26508760Y-652780D01*
X26519022Y-644093D01*
X26528674Y-634847D01*
X26537716Y-625144D01*
X26546149Y-614883D01*
X26554023Y-604113D01*
X26561288Y-592836D01*
X26566825Y-583184D01*
X26571905Y-573278D01*
X26576527Y-563168D01*
X26580642Y-552805D01*
X26584249Y-542290D01*
X26587399Y-531520D01*
X26590040Y-520496D01*
X26592225Y-509320D01*
X26593901Y-497890D01*
X26595120Y-486206D01*
X26595832Y-474370D01*
X26596086Y-462280D01*
X26595781Y-448462D01*
X26594917Y-435051D01*
X26593393Y-422046D01*
X26591361Y-409397D01*
X26588669Y-397154D01*
X26585418Y-385267D01*
X26581557Y-373786D01*
X26577086Y-362712D01*
X26572057Y-351993D01*
X26566418Y-341731D01*
X26560170Y-331774D01*
X26553363Y-322275D01*
X26545946Y-313131D01*
X26537920Y-304393D01*
X26529334Y-296011D01*
X26520139Y-288036D01*
X26511554Y-281279D01*
X26502512Y-274929D01*
X26493114Y-268935D01*
X26483360Y-263347D01*
X26473150Y-258165D01*
X26462583Y-253339D01*
X26451610Y-248869D01*
X26440282Y-244856D01*
X26428496Y-241147D01*
X26416355Y-237896D01*
X26403808Y-235000D01*
X26390904Y-232511D01*
X26377544Y-230378D01*
X26363828Y-228650D01*
X26349706Y-227279D01*
X26335227Y-226314D01*
X26320292Y-225755D01*
X26305002Y-225552D01*
G37*
G36*
X25359106Y-225552D02*
G01*
X25359106Y-1016000D01*
X25864820Y-1016000D01*
X25864820Y-924560D01*
X25471120Y-924560D01*
X25471120Y-225552D01*
G37*
G36*
X24595074Y-225552D02*
G01*
X24595074Y-1016000D01*
X25157684Y-1016000D01*
X25157684Y-924560D01*
X24707088Y-924560D01*
X24707088Y-654558D01*
X25098502Y-654558D01*
X25098502Y-564134D01*
X24707088Y-564134D01*
X24707088Y-316992D01*
X25133554Y-316992D01*
X25133554Y-225552D01*
G37*
G36*
X23898352Y-225552D02*
G01*
X23898352Y-316992D01*
X24083518Y-316992D01*
X24083518Y-924560D01*
X23898352Y-924560D01*
X23898352Y-1016000D01*
X24380698Y-1016000D01*
X24380698Y-924560D01*
X24195532Y-924560D01*
X24195532Y-316992D01*
X24380698Y-316992D01*
X24380698Y-225552D01*
G37*
G36*
X23154894Y-225552D02*
G01*
X23154894Y-315214D01*
X23426166Y-315214D01*
X23440694Y-315417D01*
X23454614Y-316128D01*
X23467872Y-317246D01*
X23480572Y-318820D01*
X23492612Y-320903D01*
X23504042Y-323392D01*
X23514862Y-326339D01*
X23525073Y-329742D01*
X23534674Y-333552D01*
X23543615Y-337870D01*
X23551997Y-342646D01*
X23559719Y-347827D01*
X23566831Y-353517D01*
X23573282Y-359664D01*
X23579175Y-366217D01*
X23584458Y-373227D01*
X23589081Y-380695D01*
X23593094Y-388670D01*
X23596498Y-397052D01*
X23599292Y-405892D01*
X23601426Y-415188D01*
X23603000Y-424942D01*
X23603915Y-435101D01*
X23604220Y-445770D01*
X23603762Y-459435D01*
X23602442Y-472440D01*
X23600206Y-484784D01*
X23597057Y-496468D01*
X23593044Y-507542D01*
X23588116Y-517956D01*
X23582325Y-527761D01*
X23575619Y-536905D01*
X23567999Y-545388D01*
X23559516Y-553212D01*
X23551743Y-559155D01*
X23543463Y-564642D01*
X23534624Y-569569D01*
X23525226Y-573938D01*
X23515320Y-577850D01*
X23504855Y-581202D01*
X23493831Y-584047D01*
X23482300Y-586384D01*
X23470209Y-588213D01*
X23457611Y-589534D01*
X23444454Y-590296D01*
X23430738Y-590550D01*
X23266908Y-590550D01*
X23266908Y-315214D01*
X23154894Y-315214D01*
X23154894Y-1016000D01*
X23266908Y-1016000D01*
X23266908Y-679196D01*
X23406354Y-679196D01*
X23620730Y-1016000D01*
X23749508Y-1016000D01*
X23515320Y-666242D01*
X23528274Y-663854D01*
X23540821Y-660958D01*
X23553013Y-657656D01*
X23564850Y-653897D01*
X23576280Y-649681D01*
X23587303Y-645007D01*
X23598022Y-639876D01*
X23608284Y-634288D01*
X23618190Y-628294D01*
X23627740Y-621792D01*
X23636935Y-614832D01*
X23645723Y-607466D01*
X23654105Y-599592D01*
X23662132Y-591312D01*
X23669650Y-582625D01*
X23676610Y-573633D01*
X23683010Y-564388D01*
X23688903Y-554837D01*
X23694186Y-545033D01*
X23698911Y-534924D01*
X23703076Y-524560D01*
X23706734Y-513943D01*
X23709782Y-503021D01*
X23712271Y-491794D01*
X23714252Y-480314D01*
X23715624Y-468579D01*
X23716488Y-456539D01*
X23716742Y-444246D01*
X23716488Y-431241D01*
X23715624Y-418592D01*
X23714252Y-406349D01*
X23712271Y-394512D01*
X23709782Y-383032D01*
X23706683Y-371906D01*
X23703076Y-361238D01*
X23698911Y-350926D01*
X23694136Y-340969D01*
X23688852Y-331419D01*
X23683010Y-322224D01*
X23676610Y-313486D01*
X23669599Y-305054D01*
X23662081Y-297078D01*
X23654004Y-289458D01*
X23645368Y-282194D01*
X23637189Y-276098D01*
X23628654Y-270306D01*
X23619714Y-264871D01*
X23610316Y-259842D01*
X23600562Y-255117D01*
X23590402Y-250748D01*
X23579886Y-246684D01*
X23568914Y-243027D01*
X23557534Y-239725D01*
X23545800Y-236728D01*
X23533658Y-234137D01*
X23521060Y-231851D01*
X23508106Y-229920D01*
X23494746Y-228346D01*
X23481030Y-227126D01*
X23466856Y-226263D01*
X23452277Y-225704D01*
X23437342Y-225552D01*
G37*
G36*
X22434804Y-225552D02*
G01*
X22434804Y-315214D01*
X22677374Y-315214D01*
X22691801Y-315417D01*
X22705618Y-315976D01*
X22718826Y-316890D01*
X22731374Y-318160D01*
X22743363Y-319836D01*
X22754742Y-321868D01*
X22765461Y-324307D01*
X22775570Y-327050D01*
X22785120Y-330200D01*
X22794010Y-333756D01*
X22802291Y-337616D01*
X22809962Y-341884D01*
X22818394Y-347573D01*
X22825964Y-353974D01*
X22832618Y-361137D01*
X22838410Y-369011D01*
X22843286Y-377545D01*
X22847300Y-386892D01*
X22850398Y-396900D01*
X22852634Y-407619D01*
X22853954Y-419100D01*
X22854412Y-431292D01*
X22854107Y-441706D01*
X22853192Y-451713D01*
X22851668Y-461213D01*
X22849535Y-470306D01*
X22846792Y-478993D01*
X22843388Y-487172D01*
X22839426Y-494944D01*
X22834854Y-502259D01*
X22829672Y-509168D01*
X22823830Y-515569D01*
X22817429Y-521563D01*
X22810419Y-527100D01*
X22802748Y-532231D01*
X22794518Y-536854D01*
X22785628Y-541070D01*
X22776180Y-544880D01*
X22766070Y-548182D01*
X22755402Y-551078D01*
X22744074Y-553516D01*
X22732187Y-555498D01*
X22719639Y-557072D01*
X22706482Y-558190D01*
X22692766Y-558850D01*
X22678390Y-559054D01*
X22546564Y-559054D01*
X22546564Y-315214D01*
X22434804Y-315214D01*
X22434804Y-646176D01*
X22694392Y-646176D01*
X22708870Y-646379D01*
X22722789Y-646887D01*
X22736251Y-647801D01*
X22749154Y-649071D01*
X22761549Y-650697D01*
X22773386Y-652678D01*
X22784765Y-655015D01*
X22795585Y-657707D01*
X22805898Y-660755D01*
X22815651Y-664210D01*
X22824948Y-667969D01*
X22833685Y-672134D01*
X22841864Y-676605D01*
X22849586Y-681482D01*
X22859492Y-688797D01*
X22868331Y-696772D01*
X22876154Y-705358D01*
X22882910Y-714603D01*
X22888651Y-724458D01*
X22893324Y-734974D01*
X22896982Y-746099D01*
X22899573Y-757885D01*
X22901148Y-770280D01*
X22901656Y-783336D01*
X22901198Y-797407D01*
X22899725Y-810717D01*
X22897338Y-823315D01*
X22893934Y-835152D01*
X22889616Y-846277D01*
X22884282Y-856640D01*
X22877983Y-866292D01*
X22870769Y-875182D01*
X22862590Y-883361D01*
X22853396Y-890778D01*
X22844963Y-896467D01*
X22835819Y-901649D01*
X22825862Y-906322D01*
X22815194Y-910539D01*
X22803764Y-914247D01*
X22791572Y-917448D01*
X22778618Y-920140D01*
X22764902Y-922375D01*
X22750424Y-924102D01*
X22735235Y-925372D01*
X22719233Y-926084D01*
X22702520Y-926337D01*
X22546564Y-926337D01*
X22546564Y-646176D01*
X22434804Y-646176D01*
X22434804Y-1016000D01*
X22711410Y-1016000D01*
X22725532Y-1015847D01*
X22739400Y-1015390D01*
X22752913Y-1014679D01*
X22766121Y-1013663D01*
X22778974Y-1012342D01*
X22791572Y-1010716D01*
X22803815Y-1008837D01*
X22815753Y-1006602D01*
X22827386Y-1004112D01*
X22838714Y-1001318D01*
X22849738Y-998270D01*
X22860406Y-994867D01*
X22870820Y-991209D01*
X22880878Y-987247D01*
X22890632Y-982980D01*
X22900081Y-978458D01*
X22909174Y-973632D01*
X22918013Y-968451D01*
X22926497Y-963066D01*
X22934676Y-957326D01*
X22944378Y-949858D01*
X22953472Y-941984D01*
X22961955Y-933754D01*
X22969778Y-925169D01*
X22976992Y-916178D01*
X22983596Y-906881D01*
X22989540Y-897178D01*
X22994874Y-887120D01*
X22999598Y-876655D01*
X23003662Y-865835D01*
X23007116Y-854659D01*
X23009910Y-843127D01*
X23012095Y-831189D01*
X23013670Y-818896D01*
X23014635Y-806246D01*
X23014940Y-793242D01*
X23014584Y-780288D01*
X23013466Y-767638D01*
X23011587Y-755446D01*
X23008996Y-743559D01*
X23005643Y-732078D01*
X23001528Y-720953D01*
X22996702Y-710234D01*
X22991114Y-699871D01*
X22984815Y-689914D01*
X22977703Y-680262D01*
X22969931Y-671068D01*
X22961346Y-662178D01*
X22953421Y-654913D01*
X22945039Y-648106D01*
X22936250Y-641654D01*
X22927005Y-635711D01*
X22917302Y-630174D01*
X22907142Y-625043D01*
X22896525Y-620318D01*
X22885450Y-616051D01*
X22873970Y-612241D01*
X22861981Y-608787D01*
X22849586Y-605840D01*
X22836733Y-603250D01*
X22823474Y-601116D01*
X22809708Y-599440D01*
X22823932Y-596138D01*
X22837546Y-592226D01*
X22850551Y-587603D01*
X22862946Y-582320D01*
X22874732Y-576376D01*
X22885908Y-569772D01*
X22896474Y-562508D01*
X22906431Y-554583D01*
X22915778Y-545947D01*
X22924516Y-536702D01*
X22932542Y-526846D01*
X22939705Y-516534D01*
X22946004Y-505764D01*
X22951490Y-494538D01*
X22956113Y-482803D01*
X22959923Y-470611D01*
X22962870Y-457911D01*
X22965003Y-444754D01*
X22966273Y-431139D01*
X22966680Y-417068D01*
X22966476Y-407111D01*
X22965867Y-397459D01*
X22964851Y-388010D01*
X22963479Y-378866D01*
X22961650Y-369976D01*
X22959415Y-361340D01*
X22956824Y-353009D01*
X22953776Y-344932D01*
X22950373Y-337108D01*
X22946563Y-329539D01*
X22942346Y-322224D01*
X22937724Y-315214D01*
X22932694Y-308457D01*
X22927259Y-301955D01*
X22921417Y-295706D01*
X22915168Y-289763D01*
X22908514Y-284022D01*
X22901503Y-278587D01*
X22894036Y-273405D01*
X22886212Y-268528D01*
X22877932Y-263906D01*
X22869296Y-259486D01*
X22860254Y-255371D01*
X22850754Y-251561D01*
X22840899Y-247954D01*
X22830637Y-244652D01*
X22819969Y-241604D01*
X22808895Y-238810D01*
X22797465Y-236270D01*
X22785578Y-234035D01*
X22773284Y-232054D01*
X22760635Y-230327D01*
X22747528Y-228854D01*
X22720198Y-226720D01*
X22705872Y-226060D01*
X22676104Y-225552D01*
G37*
G36*
X21918676Y-225552D02*
G01*
X21737399Y-704850D01*
X21844762Y-704850D01*
X21933154Y-456946D01*
X21973540Y-332740D01*
X21980652Y-309880D01*
X22014688Y-411988D01*
X22116034Y-704850D01*
X21737399Y-704850D01*
X21619718Y-1016000D01*
X21734526Y-1016000D01*
X21814790Y-792226D01*
X22144736Y-792226D01*
X22225508Y-1016000D01*
X22339300Y-1016000D01*
X22045676Y-225552D01*
G37*
G36*
X19534886Y-225552D02*
G01*
X19534886Y-1016000D01*
X19628612Y-1016000D01*
X19628612Y-507492D01*
X19626326Y-330962D01*
X19649592Y-403453D01*
X19667118Y-456996D01*
X19678954Y-491490D01*
X19779996Y-758190D01*
X19860260Y-758190D01*
X19958964Y-494182D01*
X19971664Y-456996D01*
X19987564Y-408228D01*
X20011898Y-330962D01*
X20009205Y-416458D01*
X20008494Y-463600D01*
X20008342Y-492048D01*
X20008342Y-1016000D01*
X20103338Y-1016000D01*
X20103338Y-225552D01*
X19971512Y-225552D01*
X19863054Y-512572D01*
X19837400Y-594614D01*
X19822160Y-647446D01*
X19805446Y-586028D01*
X19798334Y-561390D01*
X19792137Y-540867D01*
X19786752Y-524408D01*
X19782282Y-512064D01*
X19673824Y-225552D01*
G37*
G36*
X16673830Y-225552D02*
G01*
X16673830Y-315214D01*
X16916400Y-315214D01*
X16930827Y-315417D01*
X16944644Y-315976D01*
X16957852Y-316890D01*
X16970451Y-318160D01*
X16982440Y-319836D01*
X16993819Y-321868D01*
X17004588Y-324307D01*
X17014748Y-327050D01*
X17024248Y-330200D01*
X17033189Y-333756D01*
X17041520Y-337616D01*
X17049242Y-341884D01*
X17057624Y-347573D01*
X17065142Y-353974D01*
X17071797Y-361137D01*
X17077537Y-369011D01*
X17082363Y-377545D01*
X17086376Y-386892D01*
X17089475Y-396900D01*
X17091660Y-407619D01*
X17092980Y-419100D01*
X17093438Y-431292D01*
X17093133Y-441706D01*
X17092218Y-451713D01*
X17090694Y-461213D01*
X17088561Y-470306D01*
X17085818Y-478993D01*
X17082465Y-487172D01*
X17078502Y-494944D01*
X17073930Y-502259D01*
X17068698Y-509168D01*
X17062907Y-515569D01*
X17056506Y-521563D01*
X17049496Y-527100D01*
X17041876Y-532231D01*
X17033646Y-536854D01*
X17024756Y-541070D01*
X17015307Y-544880D01*
X17005249Y-548182D01*
X16994581Y-551078D01*
X16983252Y-553516D01*
X16971365Y-555498D01*
X16958868Y-557072D01*
X16945762Y-558190D01*
X16931995Y-558850D01*
X16917670Y-559054D01*
X16785844Y-559054D01*
X16785844Y-315214D01*
X16673830Y-315214D01*
X16673830Y-646176D01*
X16933418Y-646176D01*
X16947896Y-646379D01*
X16961815Y-646887D01*
X16975277Y-647801D01*
X16988180Y-649071D01*
X17000575Y-650697D01*
X17012412Y-652678D01*
X17023791Y-655015D01*
X17034611Y-657707D01*
X17044924Y-660755D01*
X17054677Y-664210D01*
X17063974Y-667969D01*
X17072711Y-672134D01*
X17080890Y-676605D01*
X17088612Y-681482D01*
X17098568Y-688797D01*
X17107458Y-696772D01*
X17115282Y-705358D01*
X17122089Y-714603D01*
X17127829Y-724458D01*
X17132554Y-734974D01*
X17136211Y-746099D01*
X17138853Y-757885D01*
X17140428Y-770280D01*
X17140936Y-783336D01*
X17140428Y-797407D01*
X17139005Y-810717D01*
X17136567Y-823315D01*
X17133163Y-835152D01*
X17128794Y-846277D01*
X17123460Y-856640D01*
X17117161Y-866292D01*
X17109897Y-875182D01*
X17101616Y-883361D01*
X17092422Y-890778D01*
X17083989Y-896467D01*
X17074845Y-901649D01*
X17064888Y-906322D01*
X17054220Y-910539D01*
X17042790Y-914247D01*
X17030547Y-917448D01*
X17017644Y-920140D01*
X17003928Y-922375D01*
X16989450Y-924102D01*
X16974261Y-925372D01*
X16958259Y-926084D01*
X16941546Y-926337D01*
X16785844Y-926337D01*
X16785844Y-646176D01*
X16673830Y-646176D01*
X16673830Y-1016000D01*
X16950436Y-1016000D01*
X16964558Y-1015847D01*
X16978426Y-1015390D01*
X16991939Y-1014679D01*
X17005147Y-1013663D01*
X17018000Y-1012342D01*
X17030598Y-1010716D01*
X17042841Y-1008837D01*
X17054779Y-1006602D01*
X17066412Y-1004112D01*
X17077740Y-1001318D01*
X17088764Y-998270D01*
X17099432Y-994867D01*
X17109846Y-991209D01*
X17119904Y-987247D01*
X17129658Y-982980D01*
X17139107Y-978458D01*
X17148200Y-973632D01*
X17157039Y-968451D01*
X17165523Y-963066D01*
X17173702Y-957326D01*
X17183404Y-949858D01*
X17192498Y-941984D01*
X17200981Y-933754D01*
X17208804Y-925169D01*
X17216018Y-916178D01*
X17222622Y-906881D01*
X17228566Y-897178D01*
X17233900Y-887120D01*
X17238624Y-876655D01*
X17242688Y-865835D01*
X17246142Y-854659D01*
X17248936Y-843127D01*
X17251121Y-831189D01*
X17252696Y-818896D01*
X17253661Y-806246D01*
X17253966Y-793242D01*
X17253610Y-780288D01*
X17252492Y-767638D01*
X17250613Y-755446D01*
X17248022Y-743559D01*
X17244669Y-732078D01*
X17240554Y-720953D01*
X17235728Y-710234D01*
X17230140Y-699871D01*
X17223841Y-689914D01*
X17216729Y-680262D01*
X17208957Y-671068D01*
X17200372Y-662178D01*
X17192498Y-654913D01*
X17184166Y-648106D01*
X17175378Y-641654D01*
X17166132Y-635711D01*
X17156430Y-630174D01*
X17146270Y-625043D01*
X17135652Y-620318D01*
X17124629Y-616051D01*
X17113097Y-612241D01*
X17101108Y-608787D01*
X17088713Y-605840D01*
X17075861Y-603250D01*
X17062500Y-601116D01*
X17048734Y-599440D01*
X17062958Y-596138D01*
X17076572Y-592226D01*
X17089577Y-587603D01*
X17102023Y-582320D01*
X17113808Y-576376D01*
X17125035Y-569772D01*
X17135602Y-562508D01*
X17145609Y-554583D01*
X17155007Y-545947D01*
X17163796Y-536702D01*
X17171822Y-526846D01*
X17178985Y-516534D01*
X17185284Y-505764D01*
X17190770Y-494538D01*
X17195393Y-482803D01*
X17199203Y-470611D01*
X17202150Y-457911D01*
X17204283Y-444754D01*
X17205553Y-431139D01*
X17205960Y-417068D01*
X17205756Y-407111D01*
X17205147Y-397459D01*
X17204131Y-388010D01*
X17202759Y-378866D01*
X17200930Y-369976D01*
X17198695Y-361340D01*
X17196104Y-353009D01*
X17193056Y-344932D01*
X17189653Y-337108D01*
X17185843Y-329539D01*
X17181576Y-322224D01*
X17176953Y-315214D01*
X17171924Y-308457D01*
X17166488Y-301955D01*
X17160646Y-295706D01*
X17154398Y-289763D01*
X17147743Y-284022D01*
X17140682Y-278587D01*
X17133265Y-273405D01*
X17125391Y-268528D01*
X17117161Y-263906D01*
X17108474Y-259486D01*
X17099432Y-255371D01*
X17089932Y-251561D01*
X17080077Y-247954D01*
X17069816Y-244652D01*
X17059148Y-241604D01*
X17048073Y-238810D01*
X17036592Y-236270D01*
X17024705Y-234035D01*
X17012412Y-232054D01*
X16999712Y-230327D01*
X16986605Y-228854D01*
X16959224Y-226720D01*
X16944949Y-226060D01*
X16915130Y-225552D01*
G37*
G36*
X15942056Y-225552D02*
G01*
X15942056Y-739394D01*
X15942208Y-754227D01*
X15942716Y-768705D01*
X15943478Y-782726D01*
X15944596Y-796391D01*
X15946069Y-809599D01*
X15947796Y-822401D01*
X15949879Y-834796D01*
X15952317Y-846785D01*
X15955010Y-858367D01*
X15958057Y-869594D01*
X15961410Y-880313D01*
X15965119Y-890676D01*
X15969081Y-900633D01*
X15973399Y-910183D01*
X15978073Y-919327D01*
X15983000Y-928065D01*
X15988284Y-936345D01*
X15993922Y-944270D01*
X15999815Y-951737D01*
X16006063Y-958850D01*
X16013430Y-966266D01*
X16021304Y-973277D01*
X16029686Y-979881D01*
X16038525Y-986028D01*
X16047821Y-991768D01*
X16057676Y-997102D01*
X16067938Y-1001979D01*
X16078758Y-1006449D01*
X16090036Y-1010462D01*
X16101771Y-1014069D01*
X16114013Y-1017269D01*
X16126764Y-1020013D01*
X16139972Y-1022350D01*
X16153638Y-1024280D01*
X16167862Y-1025753D01*
X16182543Y-1026820D01*
X16197681Y-1027480D01*
X16213328Y-1027684D01*
X16227907Y-1027480D01*
X16242030Y-1026972D01*
X16255796Y-1026058D01*
X16269106Y-1024839D01*
X16282060Y-1023213D01*
X16294607Y-1021283D01*
X16306749Y-1018997D01*
X16318484Y-1016304D01*
X16329812Y-1013307D01*
X16340734Y-1009903D01*
X16351250Y-1006195D01*
X16361359Y-1002080D01*
X16371062Y-997661D01*
X16380358Y-992835D01*
X16389248Y-987653D01*
X16397732Y-982167D01*
X16405860Y-976274D01*
X16413530Y-970076D01*
X16420846Y-963472D01*
X16427704Y-956564D01*
X16434206Y-949248D01*
X16440404Y-941476D01*
X16446246Y-933297D01*
X16451732Y-924712D01*
X16456913Y-915669D01*
X16461790Y-906221D01*
X16466261Y-896315D01*
X16470477Y-886002D01*
X16474287Y-875284D01*
X16477792Y-864108D01*
X16480993Y-852525D01*
X16483838Y-840486D01*
X16486327Y-828040D01*
X16488511Y-815187D01*
X16490340Y-801878D01*
X16491813Y-788162D01*
X16492982Y-773988D01*
X16493845Y-759409D01*
X16494353Y-744423D01*
X16494506Y-728980D01*
X16494506Y-225552D01*
X16383254Y-225552D01*
X16383254Y-716534D01*
X16383050Y-733907D01*
X16382492Y-750468D01*
X16381526Y-766267D01*
X16380155Y-781304D01*
X16378377Y-795528D01*
X16376243Y-808990D01*
X16373754Y-821690D01*
X16370807Y-833577D01*
X16367506Y-844753D01*
X16363797Y-855116D01*
X16359733Y-864666D01*
X16355263Y-873455D01*
X16350386Y-881481D01*
X16345154Y-888746D01*
X16338397Y-896467D01*
X16330879Y-903478D01*
X16322598Y-909878D01*
X16313505Y-915568D01*
X16303650Y-920597D01*
X16293033Y-924915D01*
X16281603Y-928624D01*
X16269411Y-931621D01*
X16256406Y-934008D01*
X16242690Y-935685D01*
X16228110Y-936650D01*
X16212819Y-937006D01*
X16198138Y-936701D01*
X16184219Y-935685D01*
X16171113Y-934059D01*
X16158768Y-931824D01*
X16147237Y-928878D01*
X16136416Y-925321D01*
X16126409Y-921105D01*
X16117214Y-916228D01*
X16108781Y-910742D01*
X16101110Y-904544D01*
X16094201Y-897737D01*
X16088106Y-890269D01*
X16083381Y-883259D01*
X16079012Y-875487D01*
X16074999Y-867003D01*
X16071291Y-857758D01*
X16067989Y-847750D01*
X16064992Y-836980D01*
X16062401Y-825500D01*
X16060115Y-813257D01*
X16058184Y-800252D01*
X16056610Y-786536D01*
X16055390Y-772058D01*
X16054527Y-756818D01*
X16053968Y-740867D01*
X16053816Y-724154D01*
X16053816Y-225552D01*
G37*
G36*
X15233650Y-225552D02*
G01*
X15233650Y-1016000D01*
X15345410Y-1016000D01*
X15345410Y-651002D01*
X15651480Y-651002D01*
X15651480Y-1016000D01*
X15763240Y-1016000D01*
X15763240Y-225552D01*
X15651480Y-225552D01*
X15651480Y-557276D01*
X15345410Y-557276D01*
X15345410Y-225552D01*
G37*
G36*
X14463013Y-225552D02*
G01*
X14463013Y-316992D01*
X14722601Y-316992D01*
X14722601Y-1016000D01*
X14834107Y-1016000D01*
X14834107Y-316992D01*
X15093442Y-316992D01*
X15093442Y-225552D01*
G37*
G36*
X13816838Y-225552D02*
G01*
X13816838Y-316992D01*
X14002004Y-316992D01*
X14002004Y-924560D01*
X13816838Y-924560D01*
X13816838Y-1016000D01*
X14298930Y-1016000D01*
X14298930Y-924560D01*
X14113763Y-924560D01*
X14113763Y-316992D01*
X14298930Y-316992D01*
X14298930Y-225552D01*
G37*
G36*
X10142474Y-225552D02*
G01*
X10142474Y-316992D01*
X10402062Y-316992D01*
X10402062Y-1016000D01*
X10513314Y-1016000D01*
X10513314Y-316992D01*
X10772902Y-316992D01*
X10772902Y-225552D01*
G37*
G36*
X9453372Y-225552D02*
G01*
X9453372Y-1016000D01*
X9547098Y-1016000D01*
X9547098Y-507492D01*
X9544812Y-330962D01*
X9568078Y-403453D01*
X9585553Y-456996D01*
X9597237Y-491490D01*
X9600946Y-501650D01*
X9698228Y-758190D01*
X9778492Y-758190D01*
X9877196Y-494182D01*
X9890048Y-456996D01*
X9906000Y-408228D01*
X9930384Y-330962D01*
X9927691Y-416458D01*
X9926980Y-463600D01*
X9926828Y-492048D01*
X9926828Y-1016000D01*
X10021570Y-1016000D01*
X10021570Y-225552D01*
X9889744Y-225552D01*
X9781540Y-512572D01*
X9755632Y-594614D01*
X9740392Y-647446D01*
X9723780Y-586028D01*
X9716719Y-561390D01*
X9710470Y-540867D01*
X9705086Y-524408D01*
X9592310Y-225552D01*
G37*
G36*
X8771382Y-225552D02*
G01*
X8771382Y-1016000D01*
X8883142Y-1016000D01*
X8883142Y-699008D01*
X9279382Y-699008D01*
X9279382Y-606552D01*
X8883142Y-606552D01*
X8883142Y-316992D01*
X9293352Y-316992D01*
X9293352Y-225552D01*
G37*
G36*
X8032496Y-225552D02*
G01*
X8032496Y-315214D01*
X8303768Y-315214D01*
X8318296Y-315417D01*
X8332216Y-316128D01*
X8345474Y-317246D01*
X8358174Y-318820D01*
X8370214Y-320903D01*
X8381644Y-323392D01*
X8392464Y-326339D01*
X8402675Y-329742D01*
X8412276Y-333552D01*
X8421217Y-337870D01*
X8429599Y-342646D01*
X8437321Y-347827D01*
X8444433Y-353517D01*
X8450884Y-359664D01*
X8456777Y-366217D01*
X8462060Y-373227D01*
X8466683Y-380695D01*
X8470696Y-388670D01*
X8474100Y-397052D01*
X8476894Y-405892D01*
X8479028Y-415188D01*
X8480602Y-424942D01*
X8481517Y-435101D01*
X8481822Y-445770D01*
X8481364Y-459435D01*
X8480044Y-472440D01*
X8477808Y-484784D01*
X8474659Y-496468D01*
X8470646Y-507542D01*
X8465718Y-517956D01*
X8459927Y-527761D01*
X8453221Y-536905D01*
X8445601Y-545388D01*
X8437118Y-553212D01*
X8429345Y-559155D01*
X8421065Y-564642D01*
X8412226Y-569569D01*
X8402828Y-573938D01*
X8392922Y-577850D01*
X8382457Y-581202D01*
X8371433Y-584047D01*
X8359902Y-586384D01*
X8347811Y-588213D01*
X8335213Y-589534D01*
X8322056Y-590296D01*
X8308340Y-590550D01*
X8144256Y-590550D01*
X8144256Y-315214D01*
X8032496Y-315214D01*
X8032496Y-1016000D01*
X8144256Y-1016000D01*
X8144256Y-679196D01*
X8283702Y-679196D01*
X8498332Y-1016000D01*
X8627110Y-1016000D01*
X8392668Y-666242D01*
X8405672Y-663854D01*
X8418220Y-660958D01*
X8430463Y-657656D01*
X8442299Y-653897D01*
X8453729Y-649681D01*
X8464804Y-645007D01*
X8475472Y-639876D01*
X8485784Y-634288D01*
X8495690Y-628294D01*
X8505190Y-621792D01*
X8514334Y-614832D01*
X8523122Y-607466D01*
X8531504Y-599592D01*
X8539480Y-591312D01*
X8547049Y-582625D01*
X8554059Y-573633D01*
X8560460Y-564388D01*
X8566353Y-554837D01*
X8571687Y-545033D01*
X8576411Y-534924D01*
X8580628Y-524560D01*
X8584285Y-513943D01*
X8587333Y-503021D01*
X8589873Y-491794D01*
X8591804Y-480314D01*
X8593226Y-468579D01*
X8594039Y-456539D01*
X8594344Y-444246D01*
X8594090Y-431241D01*
X8593226Y-418592D01*
X8591854Y-406349D01*
X8589873Y-394512D01*
X8587384Y-383032D01*
X8584285Y-371906D01*
X8580678Y-361238D01*
X8576513Y-350926D01*
X8571738Y-340969D01*
X8566454Y-331419D01*
X8560612Y-322224D01*
X8554212Y-313486D01*
X8547201Y-305054D01*
X8539683Y-297078D01*
X8531606Y-289458D01*
X8522970Y-282194D01*
X8514791Y-276098D01*
X8506256Y-270306D01*
X8497316Y-264871D01*
X8487918Y-259842D01*
X8478164Y-255117D01*
X8468004Y-250748D01*
X8457488Y-246684D01*
X8446516Y-243027D01*
X8435136Y-239725D01*
X8423402Y-236728D01*
X8411260Y-234137D01*
X8398662Y-231851D01*
X8385708Y-229920D01*
X8372348Y-228346D01*
X8358631Y-227126D01*
X8344458Y-226263D01*
X8329879Y-225704D01*
X8314944Y-225552D01*
G37*
G36*
X11733784Y-650494D02*
G01*
X11733784Y-744220D01*
X12061952Y-744220D01*
X12061952Y-650494D01*
G37*
G36*
X17589754Y-840740D02*
G01*
X17589754Y-1016000D01*
X17727422Y-1016000D01*
X17727422Y-840740D01*
G37*
G36*
X5410708Y-352044D02*
G01*
X5410708Y-386588D01*
X5454396Y-386588D01*
X5454396Y-352044D01*
G37*
G36*
X5295900Y-352044D02*
G01*
X5295900Y-386588D01*
X5339588Y-386588D01*
X5339588Y-352044D01*
G37*
G36*
X5233670Y-508762D02*
G01*
X5233670Y-536702D01*
X5245100Y-545642D01*
X5256428Y-553720D01*
X5267655Y-560882D01*
X5278729Y-567182D01*
X5289651Y-572566D01*
X5300472Y-577088D01*
X5311495Y-580745D01*
X5322976Y-583742D01*
X5334965Y-586028D01*
X5347411Y-587705D01*
X5360416Y-588670D01*
X5373878Y-589026D01*
X5387086Y-588670D01*
X5399887Y-587705D01*
X5412181Y-586028D01*
X5424017Y-583742D01*
X5435346Y-580745D01*
X5446268Y-577088D01*
X5456936Y-572719D01*
X5467807Y-567385D01*
X5478881Y-561136D01*
X5490159Y-553923D01*
X5501640Y-545795D01*
X5513324Y-536702D01*
X5513324Y-508762D01*
X5501640Y-517855D01*
X5490108Y-526084D01*
X5478729Y-533349D01*
X5467502Y-539699D01*
X5456428Y-545134D01*
X5445506Y-549656D01*
X5434431Y-553364D01*
X5422950Y-556412D01*
X5411165Y-558800D01*
X5398973Y-560476D01*
X5386476Y-561492D01*
X5373624Y-561848D01*
X5360670Y-561492D01*
X5348122Y-560476D01*
X5335930Y-558800D01*
X5324043Y-556412D01*
X5312613Y-553364D01*
X5301488Y-549656D01*
X5290566Y-545134D01*
X5279491Y-539699D01*
X5268264Y-533349D01*
X5256885Y-526084D01*
X5245354Y-517855D01*
G37*
D25*
X2897377Y-431292D02*
G01*
X2892043Y-420878D01*
X2881629Y-410463D01*
X2871470Y-405384D01*
X2850641Y-405384D01*
X2840227Y-410463D01*
X2829813Y-420878D01*
X2824479Y-431292D01*
X2819400Y-447039D01*
X2819400Y-472947D01*
X2824479Y-488442D01*
X2829813Y-498855D01*
X2840227Y-509270D01*
X2850641Y-514350D01*
X2871470Y-514350D01*
X2881629Y-509270D01*
X2892043Y-498855D01*
X2897377Y-488442D01*
X2931668Y-426212D02*
G01*
X2942081Y-420878D01*
X2957575Y-405384D01*
X2957575Y-514350D01*
X3494277Y-1117092D02*
G01*
X3488943Y-1106678D01*
X3478529Y-1096263D01*
X3468370Y-1091184D01*
X3447541Y-1091184D01*
X3437127Y-1096263D01*
X3426713Y-1106678D01*
X3421379Y-1117092D01*
X3416300Y-1132839D01*
X3416300Y-1158747D01*
X3421379Y-1174242D01*
X3426713Y-1184655D01*
X3437127Y-1195070D01*
X3447541Y-1200150D01*
X3468370Y-1200150D01*
X3478529Y-1195070D01*
X3488943Y-1184655D01*
X3494277Y-1174242D01*
X3533647Y-1117092D02*
G01*
X3533647Y-1112012D01*
X3538981Y-1101597D01*
X3544061Y-1096263D01*
X3554475Y-1091184D01*
X3575304Y-1091184D01*
X3585718Y-1096263D01*
X3590797Y-1101597D01*
X3596131Y-1112012D01*
X3596131Y-1122426D01*
X3590797Y-1132839D01*
X3580384Y-1148334D01*
X3528568Y-1200150D01*
X3601211Y-1200150D01*
X4241291Y-798321D02*
G01*
X4230877Y-803655D01*
X4220463Y-814070D01*
X4215384Y-824229D01*
X4215384Y-845057D01*
X4220463Y-855471D01*
X4230877Y-865886D01*
X4241291Y-871220D01*
X4257040Y-876300D01*
X4282947Y-876300D01*
X4298441Y-871220D01*
X4308856Y-865886D01*
X4319270Y-855471D01*
X4324350Y-845057D01*
X4324350Y-824229D01*
X4319270Y-814070D01*
X4308856Y-803655D01*
X4298441Y-798321D01*
X4215384Y-753618D02*
G01*
X4215384Y-696468D01*
X4257040Y-727710D01*
X4257040Y-712215D01*
X4262120Y-701802D01*
X4267200Y-696468D01*
X4282947Y-691387D01*
X4293361Y-691387D01*
X4308856Y-696468D01*
X4319270Y-706881D01*
X4324350Y-722629D01*
X4324350Y-738123D01*
X4319270Y-753618D01*
X4314190Y-758952D01*
X4303775Y-764031D01*
X3748277Y-621792D02*
G01*
X3742943Y-611378D01*
X3732529Y-600963D01*
X3722370Y-595884D01*
X3701541Y-595884D01*
X3691127Y-600963D01*
X3680713Y-611378D01*
X3675379Y-621792D01*
X3670300Y-637539D01*
X3670300Y-663447D01*
X3675379Y-678942D01*
X3680713Y-689355D01*
X3691127Y-699770D01*
X3701541Y-704850D01*
X3722370Y-704850D01*
X3732529Y-699770D01*
X3742943Y-689355D01*
X3748277Y-678942D01*
X3834384Y-595884D02*
G01*
X3782568Y-668528D01*
X3860545Y-668528D01*
X3834384Y-595884D02*
G01*
X3834384Y-704850D01*
X4292091Y-493521D02*
G01*
X4281677Y-498855D01*
X4271263Y-509270D01*
X4266184Y-519429D01*
X4266184Y-540257D01*
X4271263Y-550671D01*
X4281677Y-561086D01*
X4292091Y-566420D01*
X4307840Y-571500D01*
X4333747Y-571500D01*
X4349241Y-566420D01*
X4359656Y-561086D01*
X4370070Y-550671D01*
X4375150Y-540257D01*
X4375150Y-519429D01*
X4370070Y-509270D01*
X4359656Y-498855D01*
X4349241Y-493521D01*
X4266184Y-397002D02*
G01*
X4266184Y-448818D01*
X4312920Y-454152D01*
X4307840Y-448818D01*
X4302506Y-433323D01*
X4302506Y-417829D01*
X4307840Y-402081D01*
X4318000Y-391668D01*
X4333747Y-386587D01*
X4344161Y-386587D01*
X4359656Y-391668D01*
X4370070Y-402081D01*
X4375150Y-417829D01*
X4375150Y-433323D01*
X4370070Y-448818D01*
X4364990Y-454152D01*
X4354575Y-459231D01*
X4711191Y-468121D02*
G01*
X4700777Y-473455D01*
X4690363Y-483870D01*
X4685284Y-494029D01*
X4685284Y-514857D01*
X4690363Y-525271D01*
X4700777Y-535686D01*
X4711191Y-541020D01*
X4726940Y-546100D01*
X4752847Y-546100D01*
X4768341Y-541020D01*
X4778756Y-535686D01*
X4789170Y-525271D01*
X4794250Y-514857D01*
X4794250Y-494029D01*
X4789170Y-483870D01*
X4778756Y-473455D01*
X4768341Y-468121D01*
X4700777Y-371602D02*
G01*
X4690363Y-376681D01*
X4685284Y-392429D01*
X4685284Y-402589D01*
X4690363Y-418337D01*
X4706111Y-428752D01*
X4732020Y-433831D01*
X4757927Y-433831D01*
X4778756Y-428752D01*
X4789170Y-418337D01*
X4794250Y-402589D01*
X4794250Y-397510D01*
X4789170Y-382015D01*
X4778756Y-371602D01*
X4763261Y-366268D01*
X4757927Y-366268D01*
X4742434Y-371602D01*
X4732020Y-382015D01*
X4726940Y-397510D01*
X4726940Y-402589D01*
X4732020Y-418337D01*
X4742434Y-428752D01*
X4757927Y-433831D01*
X5157977Y-837692D02*
G01*
X5152643Y-827278D01*
X5142229Y-816863D01*
X5132070Y-811784D01*
X5111241Y-811784D01*
X5100827Y-816863D01*
X5090413Y-827278D01*
X5085079Y-837692D01*
X5080000Y-853439D01*
X5080000Y-879347D01*
X5085079Y-894842D01*
X5090413Y-905255D01*
X5100827Y-915670D01*
X5111241Y-920750D01*
X5132070Y-920750D01*
X5142229Y-915670D01*
X5152643Y-905255D01*
X5157977Y-894842D01*
X5264911Y-811784D02*
G01*
X5213095Y-920750D01*
X5192268Y-811784D02*
G01*
X5264911Y-811784D01*
X4952491Y-798321D02*
G01*
X4942077Y-803655D01*
X4931663Y-814070D01*
X4926584Y-824229D01*
X4926584Y-845057D01*
X4931663Y-855471D01*
X4942077Y-865886D01*
X4952491Y-871220D01*
X4968240Y-876300D01*
X4994147Y-876300D01*
X5009641Y-871220D01*
X5020056Y-865886D01*
X5030470Y-855471D01*
X5035550Y-845057D01*
X5035550Y-824229D01*
X5030470Y-814070D01*
X5020056Y-803655D01*
X5009641Y-798321D01*
X4926584Y-738123D02*
G01*
X4931663Y-753618D01*
X4942077Y-758952D01*
X4952491Y-758952D01*
X4962906Y-753618D01*
X4968240Y-743204D01*
X4973320Y-722629D01*
X4978400Y-706881D01*
X4988813Y-696468D01*
X4999227Y-691387D01*
X5014975Y-691387D01*
X5025390Y-696468D01*
X5030470Y-701802D01*
X5035550Y-717295D01*
X5035550Y-738123D01*
X5030470Y-753618D01*
X5025390Y-758952D01*
X5014975Y-764031D01*
X4999227Y-764031D01*
X4988813Y-758952D01*
X4978400Y-748537D01*
X4973320Y-732789D01*
X4968240Y-712215D01*
X4962906Y-701802D01*
X4952491Y-696468D01*
X4942077Y-696468D01*
X4931663Y-701802D01*
X4926584Y-717295D01*
X4926584Y-738123D01*
X6437122Y-610107D02*
G01*
X6442456Y-620521D01*
X6452870Y-630936D01*
X6463029Y-636015D01*
X6483858Y-636015D01*
X6494272Y-630936D01*
X6504686Y-620521D01*
X6510020Y-610107D01*
X6515100Y-594360D01*
X6515100Y-568452D01*
X6510020Y-552957D01*
X6504686Y-542544D01*
X6494272Y-532129D01*
X6483858Y-527050D01*
X6463029Y-527050D01*
X6452870Y-532129D01*
X6442456Y-542544D01*
X6437122Y-552957D01*
X6335268Y-599694D02*
G01*
X6340602Y-584200D01*
X6351015Y-573786D01*
X6366509Y-568452D01*
X6371590Y-568452D01*
X6387338Y-573786D01*
X6397752Y-584200D01*
X6402831Y-599694D01*
X6402831Y-604773D01*
X6397752Y-620521D01*
X6387338Y-630936D01*
X6371590Y-636015D01*
X6366509Y-636015D01*
X6351015Y-630936D01*
X6340602Y-620521D01*
X6335268Y-599694D01*
X6335268Y-573786D01*
X6340602Y-547623D01*
X6351015Y-532129D01*
X6366509Y-527050D01*
X6376924Y-527050D01*
X6392418Y-532129D01*
X6397752Y-542544D01*
X5866891Y-1103121D02*
G01*
X5856477Y-1108455D01*
X5846063Y-1118870D01*
X5840984Y-1129029D01*
X5840984Y-1149857D01*
X5846063Y-1160271D01*
X5856477Y-1170686D01*
X5866891Y-1176020D01*
X5882640Y-1181100D01*
X5908547Y-1181100D01*
X5924041Y-1176020D01*
X5934456Y-1170686D01*
X5944870Y-1160271D01*
X5949950Y-1149857D01*
X5949950Y-1129029D01*
X5944870Y-1118870D01*
X5934456Y-1108455D01*
X5924041Y-1103121D01*
X5861811Y-1068831D02*
G01*
X5856477Y-1058418D01*
X5840984Y-1042923D01*
X5949950Y-1042923D01*
X5840984Y-977392D02*
G01*
X5846063Y-993139D01*
X5861811Y-1003300D01*
X5887720Y-1008634D01*
X5903213Y-1008634D01*
X5929375Y-1003300D01*
X5944870Y-993139D01*
X5949950Y-977392D01*
X5949950Y-966978D01*
X5944870Y-951484D01*
X5929375Y-941070D01*
X5903213Y-935989D01*
X5887720Y-935989D01*
X5861811Y-941070D01*
X5846063Y-951484D01*
X5840984Y-966978D01*
X5840984Y-977392D01*
X5993891Y-1077721D02*
G01*
X5983477Y-1083055D01*
X5973063Y-1093470D01*
X5967984Y-1103629D01*
X5967984Y-1124457D01*
X5973063Y-1134871D01*
X5983477Y-1145286D01*
X5993891Y-1150620D01*
X6009640Y-1155700D01*
X6035547Y-1155700D01*
X6051041Y-1150620D01*
X6061456Y-1145286D01*
X6071870Y-1134871D01*
X6076950Y-1124457D01*
X6076950Y-1103629D01*
X6071870Y-1093470D01*
X6061456Y-1083055D01*
X6051041Y-1077721D01*
X5988811Y-1043431D02*
G01*
X5983477Y-1033018D01*
X5967984Y-1017523D01*
X6076950Y-1017523D01*
X5988811Y-983234D02*
G01*
X5983477Y-972820D01*
X5967984Y-957326D01*
X6076950Y-957326D01*
X2122180Y-557784D02*
G01*
X2122180Y-640842D01*
X2116846Y-656589D01*
X2111766Y-661670D01*
X2101352Y-666750D01*
X2090938Y-666750D01*
X2080524Y-661670D01*
X2075190Y-656589D01*
X2070110Y-640842D01*
X2070110Y-630428D01*
X2156470Y-578612D02*
G01*
X2166630Y-573278D01*
X2182378Y-557784D01*
X2182378Y-666750D01*
X6343200Y-638192D02*
G01*
X6277620Y-551172D01*
X6277620Y-551172D02*
G01*
X6227919Y-588622D01*
X6253581Y-679648D02*
G01*
X6248476Y-690173D01*
X6245219Y-712028D01*
X6179644Y-625002D01*
X3493515Y-577342D02*
G01*
X3488436Y-566928D01*
X3478022Y-556513D01*
X3467608Y-551179D01*
X3451859Y-546100D01*
X3425952Y-546100D01*
X3410458Y-551179D01*
X3400043Y-556513D01*
X3389629Y-566928D01*
X3384550Y-577342D01*
X3384550Y-598170D01*
X3389629Y-608329D01*
X3400043Y-618744D01*
X3410458Y-624078D01*
X3425952Y-629157D01*
X3451859Y-629157D01*
X3467608Y-624078D01*
X3478022Y-618744D01*
X3488436Y-608329D01*
X3493515Y-598170D01*
X3493515Y-577342D01*
X3405124Y-592836D02*
G01*
X3374136Y-624078D01*
X3472688Y-663447D02*
G01*
X3478022Y-673862D01*
X3493515Y-689610D01*
X3384550Y-689610D01*
X4616958Y-1080515D02*
G01*
X4627372Y-1075436D01*
X4637786Y-1065021D01*
X4643120Y-1054607D01*
X4648200Y-1038860D01*
X4648200Y-1012952D01*
X4643120Y-997457D01*
X4637786Y-987044D01*
X4627372Y-976629D01*
X4616958Y-971550D01*
X4596129Y-971550D01*
X4585970Y-976629D01*
X4575556Y-987044D01*
X4570222Y-997457D01*
X4565141Y-1012952D01*
X4565141Y-1038860D01*
X4570222Y-1054607D01*
X4575556Y-1065021D01*
X4585970Y-1075436D01*
X4596129Y-1080515D01*
X4616958Y-1080515D01*
X4601463Y-992123D02*
G01*
X4570222Y-961136D01*
X4525518Y-1054607D02*
G01*
X4525518Y-1059687D01*
X4520438Y-1070102D01*
X4515104Y-1075436D01*
X4504690Y-1080515D01*
X4484115Y-1080515D01*
X4473702Y-1075436D01*
X4468368Y-1070102D01*
X4463288Y-1059687D01*
X4463288Y-1049273D01*
X4468368Y-1038860D01*
X4478781Y-1023365D01*
X4530852Y-971550D01*
X4457954Y-971550D01*
X2540000Y-392684D02*
G01*
X2540000Y-501650D01*
X2540000Y-392684D02*
G01*
X2586736Y-392684D01*
X2602229Y-397763D01*
X2607563Y-403097D01*
X2612643Y-413512D01*
X2612643Y-423926D01*
X2607563Y-434339D01*
X2602229Y-439420D01*
X2586736Y-444500D01*
X2540000Y-444500D01*
X2576322Y-444500D02*
G01*
X2612643Y-501650D01*
X2646934Y-413512D02*
G01*
X2657347Y-408178D01*
X2673095Y-392684D01*
X2673095Y-501650D01*
X2540000Y-49784D02*
G01*
X2540000Y-158750D01*
X2540000Y-49784D02*
G01*
X2586736Y-49784D01*
X2602229Y-54863D01*
X2607563Y-60197D01*
X2612643Y-70612D01*
X2612643Y-81026D01*
X2607563Y-91439D01*
X2602229Y-96520D01*
X2586736Y-101600D01*
X2540000Y-101600D01*
X2576322Y-101600D02*
G01*
X2612643Y-158750D01*
X2652268Y-75692D02*
G01*
X2652268Y-70612D01*
X2657347Y-60197D01*
X2662681Y-54863D01*
X2673095Y-49784D01*
X2693670Y-49784D01*
X2704084Y-54863D01*
X2709418Y-60197D01*
X2714497Y-70612D01*
X2714497Y-81026D01*
X2709418Y-91439D01*
X2699004Y-106934D01*
X2646934Y-158750D01*
X2719831Y-158750D01*
X2500884Y-1066800D02*
G01*
X2609850Y-1066800D01*
X2500884Y-1066800D02*
G01*
X2500884Y-1020063D01*
X2505963Y-1004570D01*
X2511297Y-999236D01*
X2521711Y-994155D01*
X2532125Y-994155D01*
X2542540Y-999236D01*
X2547620Y-1004570D01*
X2552700Y-1020063D01*
X2552700Y-1066800D01*
X2552700Y-1030478D02*
G01*
X2609850Y-994155D01*
X2500884Y-949452D02*
G01*
X2500884Y-892302D01*
X2542540Y-923289D01*
X2542540Y-907795D01*
X2547620Y-897381D01*
X2552700Y-892302D01*
X2568447Y-886968D01*
X2578861Y-886968D01*
X2594356Y-892302D01*
X2604770Y-902715D01*
X2609850Y-918210D01*
X2609850Y-933704D01*
X2604770Y-949452D01*
X2599690Y-954531D01*
X2589275Y-959865D01*
X2907284Y-1054100D02*
G01*
X3016250Y-1054100D01*
X2907284Y-1054100D02*
G01*
X2907284Y-1007363D01*
X2912363Y-991870D01*
X2917697Y-986536D01*
X2928111Y-981455D01*
X2938525Y-981455D01*
X2948940Y-986536D01*
X2954020Y-991870D01*
X2959100Y-1007363D01*
X2959100Y-1054100D01*
X2959100Y-1017778D02*
G01*
X3016250Y-981455D01*
X2907284Y-895095D02*
G01*
X2979927Y-947165D01*
X2979927Y-869187D01*
X2907284Y-895095D02*
G01*
X3016250Y-895095D01*
X3656584Y-1066800D02*
G01*
X3765550Y-1066800D01*
X3656584Y-1066800D02*
G01*
X3656584Y-1020063D01*
X3661663Y-1004570D01*
X3666997Y-999236D01*
X3677411Y-994155D01*
X3687825Y-994155D01*
X3698240Y-999236D01*
X3703320Y-1004570D01*
X3708400Y-1020063D01*
X3708400Y-1066800D01*
X3708400Y-1030478D02*
G01*
X3765550Y-994155D01*
X3656584Y-897381D02*
G01*
X3656584Y-949452D01*
X3703320Y-954531D01*
X3698240Y-949452D01*
X3692906Y-933704D01*
X3692906Y-918210D01*
X3698240Y-902715D01*
X3708400Y-892302D01*
X3724147Y-886968D01*
X3734561Y-886968D01*
X3750056Y-892302D01*
X3760470Y-902715D01*
X3765550Y-918210D01*
X3765550Y-933704D01*
X3760470Y-949452D01*
X3755390Y-954531D01*
X3744975Y-959865D01*
X2945384Y-355600D02*
G01*
X3054350Y-355600D01*
X2945384Y-355600D02*
G01*
X2945384Y-308863D01*
X2950463Y-293370D01*
X2955797Y-288036D01*
X2966211Y-282955D01*
X2976625Y-282955D01*
X2987040Y-288036D01*
X2992120Y-293370D01*
X2997200Y-308863D01*
X2997200Y-355600D01*
X2997200Y-319278D02*
G01*
X3054350Y-282955D01*
X2960877Y-186181D02*
G01*
X2950463Y-191515D01*
X2945384Y-207010D01*
X2945384Y-217423D01*
X2950463Y-232918D01*
X2966211Y-243331D01*
X2992120Y-248665D01*
X3018027Y-248665D01*
X3038856Y-243331D01*
X3049270Y-232918D01*
X3054350Y-217423D01*
X3054350Y-212089D01*
X3049270Y-196595D01*
X3038856Y-186181D01*
X3023361Y-181102D01*
X3018027Y-181102D01*
X3002534Y-186181D01*
X2992120Y-196595D01*
X2987040Y-212089D01*
X2987040Y-217423D01*
X2992120Y-232918D01*
X3002534Y-243331D01*
X3018027Y-248665D01*
X3529584Y-355600D02*
G01*
X3638550Y-355600D01*
X3529584Y-355600D02*
G01*
X3529584Y-308863D01*
X3534663Y-293370D01*
X3539997Y-288036D01*
X3550411Y-282955D01*
X3560825Y-282955D01*
X3571240Y-288036D01*
X3576320Y-293370D01*
X3581400Y-308863D01*
X3581400Y-355600D01*
X3581400Y-319278D02*
G01*
X3638550Y-282955D01*
X3529584Y-175768D02*
G01*
X3638550Y-227837D01*
X3529584Y-248665D02*
G01*
X3529584Y-175768D01*
X3821684Y-381000D02*
G01*
X3930650Y-381000D01*
X3821684Y-381000D02*
G01*
X3821684Y-334263D01*
X3826763Y-318770D01*
X3832097Y-313436D01*
X3842511Y-308355D01*
X3852925Y-308355D01*
X3863340Y-313436D01*
X3868420Y-318770D01*
X3873500Y-334263D01*
X3873500Y-381000D01*
X3873500Y-344678D02*
G01*
X3930650Y-308355D01*
X3821684Y-247904D02*
G01*
X3826763Y-263652D01*
X3837177Y-268731D01*
X3847591Y-268731D01*
X3858006Y-263652D01*
X3863340Y-253237D01*
X3868420Y-232410D01*
X3873500Y-216915D01*
X3883913Y-206502D01*
X3894327Y-201168D01*
X3910075Y-201168D01*
X3920490Y-206502D01*
X3925570Y-211581D01*
X3930650Y-227329D01*
X3930650Y-247904D01*
X3925570Y-263652D01*
X3920490Y-268731D01*
X3910075Y-274065D01*
X3894327Y-274065D01*
X3883913Y-268731D01*
X3873500Y-258318D01*
X3868420Y-242823D01*
X3863340Y-221995D01*
X3858006Y-211581D01*
X3847591Y-206502D01*
X3837177Y-206502D01*
X3826763Y-211581D01*
X3821684Y-227329D01*
X3821684Y-247904D01*
D10*
X3072701Y-595022D02*
G01*
X3072701Y-675025D01*
X2961726Y-564037D02*
G01*
X3041723Y-564037D01*
X2961726Y-706003D02*
G01*
X3041723Y-706003D01*
X2904136Y-563455D02*
G01*
X2824137Y-563455D01*
X2793154Y-594438D02*
G01*
X2793154Y-674436D01*
X2904136Y-705416D02*
G01*
X2824137Y-705416D01*
X3656901Y-950622D02*
G01*
X3656901Y-1030625D01*
X3545926Y-919637D02*
G01*
X3625923Y-919637D01*
X3545926Y-1061603D02*
G01*
X3625923Y-1061603D01*
X3488336Y-919055D02*
G01*
X3408337Y-919055D01*
X3377354Y-950038D02*
G01*
X3377354Y-1030036D01*
X3488336Y-1061016D02*
G01*
X3408337Y-1061016D01*
X4214522Y-915098D02*
G01*
X4294525Y-915098D01*
X4183537Y-1026073D02*
G01*
X4183537Y-946076D01*
X4325503Y-1026073D02*
G01*
X4325503Y-946076D01*
X4182955Y-1083663D02*
G01*
X4182955Y-1163662D01*
X4213938Y-1194645D02*
G01*
X4293936Y-1194645D01*
X4324916Y-1083663D02*
G01*
X4324916Y-1163662D01*
X4164901Y-607722D02*
G01*
X4164901Y-687725D01*
X4053926Y-576737D02*
G01*
X4133923Y-576737D01*
X4053926Y-718703D02*
G01*
X4133923Y-718703D01*
X3996336Y-576155D02*
G01*
X3916337Y-576155D01*
X3885354Y-607138D02*
G01*
X3885354Y-687136D01*
X3996336Y-718116D02*
G01*
X3916337Y-718116D01*
X4316122Y-38798D02*
G01*
X4396125Y-38798D01*
X4285137Y-149773D02*
G01*
X4285137Y-69776D01*
X4427103Y-149773D02*
G01*
X4427103Y-69776D01*
X4284555Y-207363D02*
G01*
X4284555Y-287362D01*
X4315538Y-318345D02*
G01*
X4395536Y-318345D01*
X4426516Y-207363D02*
G01*
X4426516Y-287362D01*
X4697122Y-38798D02*
G01*
X4777125Y-38798D01*
X4666137Y-149773D02*
G01*
X4666137Y-69776D01*
X4808103Y-149773D02*
G01*
X4808103Y-69776D01*
X4665555Y-207363D02*
G01*
X4665555Y-287362D01*
X4696538Y-318345D02*
G01*
X4776536Y-318345D01*
X4807516Y-207363D02*
G01*
X4807516Y-287362D01*
X4938422Y-915098D02*
G01*
X5018425Y-915098D01*
X4907437Y-1026073D02*
G01*
X4907437Y-946076D01*
X5049403Y-1026073D02*
G01*
X5049403Y-946076D01*
X4906855Y-1083663D02*
G01*
X4906855Y-1163662D01*
X4937838Y-1194645D02*
G01*
X5017836Y-1194645D01*
X5048816Y-1083663D02*
G01*
X5048816Y-1163662D01*
X6274498Y-814677D02*
G01*
X6274498Y-734674D01*
X6385473Y-845662D02*
G01*
X6305476Y-845662D01*
X6385473Y-703696D02*
G01*
X6305476Y-703696D01*
X6443063Y-846244D02*
G01*
X6523062Y-846244D01*
X6554045Y-815261D02*
G01*
X6554045Y-735263D01*
X6443063Y-704283D02*
G01*
X6523062Y-704283D01*
X5700422Y-915098D02*
G01*
X5780425Y-915098D01*
X5669437Y-1026073D02*
G01*
X5669437Y-946076D01*
X5811403Y-1026073D02*
G01*
X5811403Y-946076D01*
X5668855Y-1083663D02*
G01*
X5668855Y-1163662D01*
X5699838Y-1194645D02*
G01*
X5779836Y-1194645D01*
X5810816Y-1083663D02*
G01*
X5810816Y-1163662D01*
X6144922Y-915098D02*
G01*
X6224925Y-915098D01*
X6113937Y-1026073D02*
G01*
X6113937Y-946076D01*
X6255903Y-1026073D02*
G01*
X6255903Y-946076D01*
X6113355Y-1083663D02*
G01*
X6113355Y-1163662D01*
X6144338Y-1194645D02*
G01*
X6224336Y-1194645D01*
X6255316Y-1083663D02*
G01*
X6255316Y-1163662D01*
X2413000Y-1041496D02*
G01*
X2413000Y-1169601D01*
X2413000Y-341495D02*
G01*
X2413000Y-877707D01*
X1808200Y-672200D02*
G01*
X1808200Y-63500D01*
X2413000Y-63500D01*
X2413000Y-177706D01*
X1808200Y-1169601D02*
G01*
X1808200Y-847003D01*
X1853224Y-1169601D02*
G01*
X1853224Y-1473200D01*
X2362200Y-1473200D01*
X2362200Y-1169601D01*
X1808200Y-1169601D02*
G01*
X2408199Y-1169601D01*
X6313794Y-172311D02*
G01*
X6457482Y-362993D01*
X6457482Y-362993D02*
G01*
X5954405Y-742088D01*
X5954405Y-742088D02*
G01*
X5810717Y-551406D01*
X5810717Y-551406D02*
G01*
X6313794Y-172311D01*
X3295700Y-626110D02*
G01*
X3295700Y-544601D01*
X3361690Y-544601D01*
X3521709Y-544601D02*
G01*
X3587699Y-544601D01*
X3521709Y-544601D01*
X3587699Y-544601D01*
X3587699Y-626110D01*
D24*
X3411702Y-699592D02*
G01*
X3471697Y-699592D01*
D10*
X4580890Y-882700D02*
G01*
X4662398Y-882700D01*
X4662398Y-948689D01*
X4662398Y-1108710D02*
G01*
X4662398Y-1174699D01*
X4662398Y-1108710D01*
X4662398Y-1174699D01*
X4580890Y-1174699D01*
D24*
X4507407Y-998702D02*
G01*
X4507407Y-1058697D01*
D25*
X2646121Y-675660D02*
G01*
X2742008Y-675660D01*
X2742008Y-543539D01*
X2646121Y-543539D01*
X2560878Y-675660D02*
G01*
X2464991Y-675660D01*
X2464991Y-543539D01*
X2560878Y-543539D01*
X2646121Y-332760D02*
G01*
X2742008Y-332760D01*
X2742008Y-200639D01*
X2646121Y-200639D01*
X2560878Y-332760D02*
G01*
X2464991Y-332760D01*
X2464991Y-200639D01*
X2560878Y-200639D01*
X2863809Y-895479D02*
G01*
X2863809Y-759487D01*
X2647990Y-759487D01*
X2647990Y-895479D01*
X2863809Y-1085720D02*
G01*
X2863809Y-1221712D01*
X2647990Y-1221712D01*
X2647990Y-1085720D01*
X3270209Y-895479D02*
G01*
X3270209Y-759487D01*
X3054390Y-759487D01*
X3054390Y-895479D01*
X3270209Y-1085720D02*
G01*
X3270209Y-1221712D01*
X3054390Y-1221712D01*
X3054390Y-1085720D01*
X3981409Y-895479D02*
G01*
X3981409Y-759487D01*
X3765590Y-759487D01*
X3765590Y-895479D01*
X3981409Y-1085720D02*
G01*
X3981409Y-1221712D01*
X3765590Y-1221712D01*
X3765590Y-1085720D01*
X3295609Y-184279D02*
G01*
X3295609Y-48287D01*
X3079790Y-48287D01*
X3079790Y-184279D01*
X3295609Y-374520D02*
G01*
X3295609Y-510512D01*
X3079790Y-510512D01*
X3079790Y-374520D01*
X3841709Y-196979D02*
G01*
X3841709Y-60987D01*
X3625890Y-60987D01*
X3625890Y-196979D01*
X3841709Y-387220D02*
G01*
X3841709Y-523212D01*
X3625890Y-523212D01*
X3625890Y-387220D01*
X4146509Y-196979D02*
G01*
X4146509Y-60987D01*
X3930690Y-60987D01*
X3930690Y-196979D01*
X4146509Y-387220D02*
G01*
X4146509Y-523212D01*
X3930690Y-523212D01*
X3930690Y-387220D01*
D10*
G75*
G01*
X2793149Y-594439D02*
G02*
X2824132Y-563456I30983J0D01*
G75*
G01*
X2824132Y-705422D02*
G02*
X2793149Y-674436I0J30983D01*
G75*
G01*
X3041719Y-564037D02*
G02*
X3072701Y-595023I0J-30983D01*
G75*
G01*
X3072701Y-675020D02*
G02*
X3041719Y-706003I-30982J0D01*
G75*
G01*
X3377349Y-950039D02*
G02*
X3408332Y-919056I30983J0D01*
G75*
G01*
X3408332Y-1061022D02*
G02*
X3377349Y-1030036I0J30983D01*
G75*
G01*
X3625919Y-919637D02*
G02*
X3656901Y-950623I0J-30983D01*
G75*
G01*
X3656901Y-1030620D02*
G02*
X3625919Y-1061603I-30982J0D01*
G75*
G01*
X4213939Y-1194651D02*
G02*
X4182956Y-1163668I0J30983D01*
G75*
G01*
X4324922Y-1163668D02*
G02*
X4293936Y-1194651I-30983J0D01*
G75*
G01*
X4183537Y-946081D02*
G02*
X4214523Y-915099I30983J0D01*
G75*
G01*
X4294520Y-915099D02*
G02*
X4325503Y-946081I0J-30982D01*
G75*
G01*
X3885349Y-607139D02*
G02*
X3916332Y-576156I30983J0D01*
G75*
G01*
X3916332Y-718122D02*
G02*
X3885349Y-687136I0J30983D01*
G75*
G01*
X4133919Y-576737D02*
G02*
X4164901Y-607723I0J-30983D01*
G75*
G01*
X4164901Y-687720D02*
G02*
X4133919Y-718703I-30982J0D01*
G75*
G01*
X4315539Y-318351D02*
G02*
X4284556Y-287368I0J30983D01*
G75*
G01*
X4426522Y-287368D02*
G02*
X4395536Y-318351I-30983J0D01*
G75*
G01*
X4285137Y-69781D02*
G02*
X4316123Y-38799I30983J0D01*
G75*
G01*
X4396120Y-38799D02*
G02*
X4427103Y-69781I0J-30982D01*
G75*
G01*
X4696539Y-318351D02*
G02*
X4665556Y-287368I0J30983D01*
G75*
G01*
X4807522Y-287368D02*
G02*
X4776536Y-318351I-30983J0D01*
G75*
G01*
X4666137Y-69781D02*
G02*
X4697123Y-38799I30983J0D01*
G75*
G01*
X4777120Y-38799D02*
G02*
X4808103Y-69781I0J-30982D01*
G75*
G01*
X4937839Y-1194651D02*
G02*
X4906856Y-1163668I0J30983D01*
G75*
G01*
X5048822Y-1163668D02*
G02*
X5017836Y-1194651I-30983J0D01*
G75*
G01*
X4907437Y-946081D02*
G02*
X4938423Y-915099I30983J0D01*
G75*
G01*
X5018420Y-915099D02*
G02*
X5049403Y-946081I0J-30982D01*
G75*
G01*
X6554051Y-815261D02*
G02*
X6523068Y-846244I-30983J0D01*
G75*
G01*
X6523068Y-704278D02*
G02*
X6554051Y-735264I0J-30983D01*
G75*
G01*
X6305481Y-845663D02*
G02*
X6274499Y-814677I0J30983D01*
G75*
G01*
X6274499Y-734680D02*
G02*
X6305481Y-703697I30982J0D01*
G75*
G01*
X5699839Y-1194651D02*
G02*
X5668856Y-1163668I0J30983D01*
G75*
G01*
X5810822Y-1163668D02*
G02*
X5779836Y-1194651I-30983J0D01*
G75*
G01*
X5669437Y-946081D02*
G02*
X5700423Y-915099I30983J0D01*
G75*
G01*
X5780420Y-915099D02*
G02*
X5811403Y-946081I0J-30982D01*
G75*
G01*
X6144339Y-1194651D02*
G02*
X6113356Y-1163668I0J30983D01*
G75*
G01*
X6255322Y-1163668D02*
G02*
X6224336Y-1194651I-30983J0D01*
G75*
G01*
X6113937Y-946081D02*
G02*
X6144923Y-915099I30983J0D01*
G75*
G01*
X6224920Y-915099D02*
G02*
X6255903Y-946081I0J-30982D01*
G75*
G01
X5752109Y-393700D02*
G03X5752109Y-393700I-380009J0D01*
M02*
