G04 Layer: TopLayer*
G04 EasyEDA v6.4.25, 2021-11-26T00:29:10--8:00*
G04 0dbdd77669684f62939db12cf9e3c97e,10*
G04 Gerber Generator version 0.2*
G04 Scale: 100 percent, Rotated: No, Reflected: No *
G04 Dimensions in millimeters *
G04 leading zeros omitted , absolute positions ,4 integer and 5 decimal *
%FSLAX45Y45*%
%MOMM*%

%ADD10C,0.2540*%
%ADD11C,10.0000*%
%ADD12C,0.5000*%
%ADD14R,0.9000X0.8000*%
%ADD15R,0.7000X1.2500*%
%ADD16R,1.2500X0.7000*%
%ADD18R,1.7010X1.2075*%
%ADD19C,2.2000*%
%ADD20C,1.8796*%
%ADD21C,1.5240*%
%ADD22C,1.2000*%

%LPD*%
D11*
X7975600Y-622300D02*
G01*
X35382200Y-609600D01*
D10*
X3447900Y-990600D02*
G01*
X3346704Y-889403D01*
X3346704Y-734568D01*
X3346704Y-734568D02*
G01*
X3238550Y-842721D01*
X3162300Y-842721D01*
X3162300Y-842721D02*
G01*
X3003702Y-684123D01*
X3003702Y-635000D01*
X3187700Y-427278D02*
G01*
X3003702Y-611276D01*
X3003702Y-635000D01*
X4356100Y-647700D02*
G01*
X4356100Y-247802D01*
X4095902Y-647700D02*
G01*
X4356100Y-647700D01*
X4472434Y-764034D01*
X4472434Y-933704D01*
X4722365Y-575462D02*
G01*
X4739027Y-558800D01*
X5073294Y-558800D01*
X2410457Y-1168400D02*
G01*
X2348771Y-1168400D01*
X2348204Y-959612D01*
X6007100Y-984097D02*
G01*
X7251697Y-984097D01*
X7302500Y-933295D01*
X5073294Y-558800D02*
G01*
X5499100Y-558800D01*
X5664200Y-393700D01*
X5943600Y-393700D01*
X6096000Y-546100D01*
X6997700Y-533400D01*
X7137400Y-279400D01*
D12*
X7308349Y-88900D02*
G01*
X7302500Y-94749D01*
X7302500Y-971397D01*
D10*
X6121400Y-279400D02*
G01*
X6121400Y-88900D01*
X5448300Y-308813D02*
G01*
X5448300Y-114300D01*
X5422900Y-88900D01*
X4720084Y-88900D02*
G01*
X4737100Y-105915D01*
X4737100Y-107797D01*
X4351784Y-88900D02*
G01*
X4356100Y-93210D01*
X4356100Y-107797D01*
X4038600Y-439978D02*
G01*
X4095902Y-497281D01*
X4095902Y-647700D01*
D12*
X1689100Y-88900D02*
G01*
X7308349Y-88900D01*
X1676400Y-1168400D02*
G01*
X7327900Y-1168400D01*
D10*
X7302500Y-1111402D02*
G01*
X7302500Y-1168400D01*
X4472431Y-1123695D02*
G01*
X4472431Y-1168397D01*
X4472434Y-1168400D01*
X6540500Y-844704D02*
G01*
X6889595Y-844704D01*
X7073900Y-660400D01*
X7137400Y-279400D02*
G01*
X6997700Y-533400D01*
X6616700Y-538479D01*
X6616700Y-628497D01*
X6540500Y-704697D01*
X4722368Y-1028700D02*
G01*
X4766972Y-984095D01*
X4978400Y-984095D01*
X4737100Y-247802D02*
G01*
X4722365Y-262536D01*
X4722365Y-1028700D01*
X3873500Y-842721D02*
G01*
X4014876Y-984097D01*
X4254500Y-984097D01*
X3733800Y-452678D02*
G01*
X3928821Y-647700D01*
X3955897Y-647700D01*
X3733800Y-452678D02*
G01*
X3701846Y-484631D01*
X3441700Y-484631D01*
X3536695Y-734568D02*
G01*
X3644849Y-842721D01*
X3873500Y-842721D01*
X3587998Y-990600D02*
G01*
X3536695Y-939297D01*
X3536695Y-734568D01*
X2863697Y-635000D02*
G01*
X2838297Y-609600D01*
X2678831Y-609600D01*
X2678836Y-266700D02*
G01*
X2678836Y-609594D01*
X2678831Y-609600D01*
X2755900Y-842721D02*
G01*
X2678836Y-765657D01*
X2678836Y-609600D01*
X2348209Y-259610D02*
G01*
X2355298Y-266700D01*
X2528163Y-266700D01*
X1868195Y-759612D02*
G01*
X2018207Y-609600D01*
X2528163Y-609600D01*
G36*
X2963699Y-589998D02*
G01*
X3043699Y-589998D01*
X3043699Y-680001D01*
X2963699Y-680001D01*
G37*
G36*
X2823700Y-589998D02*
G01*
X2903700Y-589998D01*
X2903700Y-680001D01*
X2823700Y-680001D01*
G37*
G36*
X3547899Y-945598D02*
G01*
X3627899Y-945598D01*
X3627899Y-1035601D01*
X3547899Y-1035601D01*
G37*
G36*
X3407900Y-945598D02*
G01*
X3487900Y-945598D01*
X3487900Y-1035601D01*
X3407900Y-1035601D01*
G37*
D14*
G01*
X4254500Y-984097D03*
G01*
X4254500Y-1124102D03*
G36*
X4055899Y-602698D02*
G01*
X4135899Y-602698D01*
X4135899Y-692701D01*
X4055899Y-692701D01*
G37*
G36*
X3915900Y-602698D02*
G01*
X3995900Y-602698D01*
X3995900Y-692701D01*
X3915900Y-692701D01*
G37*
G01*
X4356100Y-107797D03*
G01*
X4356100Y-247802D03*
G01*
X4737100Y-107797D03*
G01*
X4737100Y-247802D03*
G01*
X4978400Y-984097D03*
G01*
X4978400Y-1124102D03*
G01*
X6540500Y-704697D03*
G01*
X6540500Y-844702D03*
G01*
X6007100Y-984097D03*
G01*
X6007100Y-1124102D03*
G01*
X7302500Y-971397D03*
G01*
X7302500Y-1111402D03*
D15*
G01*
X3441700Y-484631D03*
G01*
X3536695Y-734568D03*
G01*
X3346704Y-734568D03*
D16*
G01*
X4722368Y-1028700D03*
G01*
X4472431Y-1123695D03*
G01*
X4472431Y-933704D03*
G36*
X2638501Y-652800D02*
G01*
X2638501Y-566399D01*
X2719148Y-566399D01*
X2719148Y-652800D01*
G37*
G36*
X2568498Y-652800D02*
G01*
X2568498Y-566399D01*
X2487851Y-566399D01*
X2487851Y-652800D01*
G37*
G36*
X2638501Y-309900D02*
G01*
X2638501Y-223499D01*
X2719148Y-223499D01*
X2719148Y-309900D01*
G37*
G36*
X2568498Y-309900D02*
G01*
X2568498Y-223499D01*
X2487851Y-223499D01*
X2487851Y-309900D01*
G37*
G36*
X2840949Y-903099D02*
G01*
X2670850Y-903099D01*
X2670850Y-782347D01*
X2840949Y-782347D01*
G37*
D18*
G01*
X2755900Y-1138478D03*
G36*
X3247349Y-903099D02*
G01*
X3077250Y-903099D01*
X3077250Y-782347D01*
X3247349Y-782347D01*
G37*
G01*
X3162300Y-1138478D03*
G36*
X3958549Y-903099D02*
G01*
X3788450Y-903099D01*
X3788450Y-782347D01*
X3958549Y-782347D01*
G37*
G01*
X3873500Y-1138478D03*
G36*
X3272749Y-191899D02*
G01*
X3102650Y-191899D01*
X3102650Y-71147D01*
X3272749Y-71147D01*
G37*
G01*
X3187700Y-427278D03*
G36*
X3818849Y-217299D02*
G01*
X3648750Y-217299D01*
X3648750Y-96547D01*
X3818849Y-96547D01*
G37*
G01*
X3733800Y-452678D03*
G36*
X4123649Y-204599D02*
G01*
X3953550Y-204599D01*
X3953550Y-83847D01*
X4123649Y-83847D01*
G37*
G01*
X4038600Y-439978D03*
G36*
X114300Y-800100D02*
G01*
X1701800Y-800100D01*
X1701800Y-1193800D01*
X114300Y-1193800D01*
G37*
G36*
X114300Y-63500D02*
G01*
X1701800Y-63500D01*
X1701800Y-431800D01*
X114300Y-431800D01*
G37*
D19*
G01*
X5823305Y-558800D03*
G01*
X5073294Y-558800D03*
G01*
X5448300Y-308813D03*
D20*
G01*
X6121400Y-279400D03*
G01*
X7137400Y-279400D03*
D21*
G01*
X7073900Y-660400D03*
G01*
X7594600Y-660400D03*
D22*
X2348204Y-989611D02*
G01*
X2348204Y-929612D01*
X2348204Y-289613D02*
G01*
X2348204Y-229613D01*
X1868195Y-789612D02*
G01*
X1868195Y-729612D01*
M02*
