G04 Layer: TopSilkLayer*
G04 EasyEDA v6.4.25, 2021-11-26T00:29:10--8:00*
G04 0dbdd77669684f62939db12cf9e3c97e,10*
G04 Gerber Generator version 0.2*
G04 Scale: 100 percent, Rotated: No, Reflected: No *
G04 Dimensions in millimeters *
G04 leading zeros omitted , absolute positions ,4 integer and 5 decimal *
%FSLAX45Y45*%
%MOMM*%

%ADD10C,0.2540*%
%ADD23C,0.2000*%
%ADD24C,0.1524*%
%ADD25C,0.2032*%

%LPD*%
D25*
X417829Y-946150D02*
G01*
X408686Y-927607D01*
X390144Y-909065D01*
X371855Y-899921D01*
X334771Y-899921D01*
X316229Y-909065D01*
X297942Y-927607D01*
X288544Y-946150D01*
X279400Y-973836D01*
X279400Y-1019810D01*
X288544Y-1047750D01*
X297942Y-1066037D01*
X316229Y-1084579D01*
X334771Y-1093723D01*
X371855Y-1093723D01*
X390144Y-1084579D01*
X408686Y-1066037D01*
X417829Y-1047750D01*
X417829Y-1019810D01*
X371855Y-1019810D02*
G01*
X417829Y-1019810D01*
X478789Y-899921D02*
G01*
X478789Y-1093723D01*
X478789Y-899921D02*
G01*
X562102Y-899921D01*
X589787Y-909065D01*
X598931Y-918210D01*
X608329Y-936752D01*
X608329Y-955294D01*
X598931Y-973836D01*
X589787Y-982979D01*
X562102Y-992123D01*
X478789Y-992123D01*
X543560Y-992123D02*
G01*
X608329Y-1093723D01*
X724662Y-899921D02*
G01*
X706120Y-909065D01*
X687578Y-927607D01*
X678434Y-946150D01*
X669289Y-973836D01*
X669289Y-1019810D01*
X678434Y-1047750D01*
X687578Y-1066037D01*
X706120Y-1084579D01*
X724662Y-1093723D01*
X761492Y-1093723D01*
X780034Y-1084579D01*
X798576Y-1066037D01*
X807720Y-1047750D01*
X816863Y-1019810D01*
X816863Y-973836D01*
X807720Y-946150D01*
X798576Y-927607D01*
X780034Y-909065D01*
X761492Y-899921D01*
X724662Y-899921D01*
X877823Y-899921D02*
G01*
X877823Y-1038352D01*
X887221Y-1066037D01*
X905510Y-1084579D01*
X933450Y-1093723D01*
X951737Y-1093723D01*
X979423Y-1084579D01*
X997965Y-1066037D01*
X1007110Y-1038352D01*
X1007110Y-899921D01*
X1068070Y-899921D02*
G01*
X1068070Y-1093723D01*
X1068070Y-899921D02*
G01*
X1197610Y-1093723D01*
X1197610Y-899921D02*
G01*
X1197610Y-1093723D01*
X1258570Y-899921D02*
G01*
X1258570Y-1093723D01*
X1258570Y-899921D02*
G01*
X1323086Y-899921D01*
X1350771Y-909065D01*
X1369313Y-927607D01*
X1378457Y-946150D01*
X1387855Y-973836D01*
X1387855Y-1019810D01*
X1378457Y-1047750D01*
X1369313Y-1066037D01*
X1350771Y-1084579D01*
X1323086Y-1093723D01*
X1258570Y-1093723D01*
X228600Y-137921D02*
G01*
X302513Y-331723D01*
X376428Y-137921D02*
G01*
X302513Y-331723D01*
X575818Y-184150D02*
G01*
X566673Y-165607D01*
X548131Y-147065D01*
X529589Y-137921D01*
X492760Y-137921D01*
X474218Y-147065D01*
X455929Y-165607D01*
X446531Y-184150D01*
X437387Y-211836D01*
X437387Y-257810D01*
X446531Y-285750D01*
X455929Y-304037D01*
X474218Y-322579D01*
X492760Y-331723D01*
X529589Y-331723D01*
X548131Y-322579D01*
X566673Y-304037D01*
X575818Y-285750D01*
X775462Y-184150D02*
G01*
X766063Y-165607D01*
X747776Y-147065D01*
X729234Y-137921D01*
X692150Y-137921D01*
X673862Y-147065D01*
X655320Y-165607D01*
X646176Y-184150D01*
X636778Y-211836D01*
X636778Y-257810D01*
X646176Y-285750D01*
X655320Y-304037D01*
X673862Y-322579D01*
X692150Y-331723D01*
X729234Y-331723D01*
X747776Y-322579D01*
X766063Y-304037D01*
X775462Y-285750D01*
X6934200Y-487426D02*
G01*
X6962393Y-553212D01*
X6990588Y-487426D02*
G01*
X6962393Y-553212D01*
X7058913Y-454660D02*
G01*
X7021575Y-553212D01*
X7058913Y-454660D02*
G01*
X7096506Y-553212D01*
X7035545Y-520445D02*
G01*
X7082536Y-520445D01*
X7127493Y-454660D02*
G01*
X7127493Y-553212D01*
X7127493Y-454660D02*
G01*
X7193025Y-553212D01*
X7193025Y-454660D02*
G01*
X7193025Y-553212D01*
X7257034Y-454660D02*
G01*
X7257034Y-553212D01*
X7224013Y-454660D02*
G01*
X7289800Y-454660D01*
X7320788Y-454660D02*
G01*
X7320788Y-553212D01*
X7320788Y-454660D02*
G01*
X7381747Y-454660D01*
X7320788Y-501650D02*
G01*
X7358379Y-501650D01*
X7320788Y-553212D02*
G01*
X7381747Y-553212D01*
X7412736Y-454660D02*
G01*
X7412736Y-553212D01*
X7412736Y-454660D02*
G01*
X7478268Y-553212D01*
X7478268Y-454660D02*
G01*
X7478268Y-553212D01*
X7509256Y-454660D02*
G01*
X7509256Y-553212D01*
X7509256Y-454660D02*
G01*
X7575041Y-553212D01*
X7575041Y-454660D02*
G01*
X7575041Y-553212D01*
X7643368Y-454660D02*
G01*
X7606029Y-553212D01*
X7643368Y-454660D02*
G01*
X7680959Y-553212D01*
X7620000Y-520445D02*
G01*
X7666990Y-520445D01*
X7711947Y-487426D02*
G01*
X7740141Y-553212D01*
X7768336Y-487426D02*
G01*
X7740141Y-553212D01*
D24*
X2897377Y-431292D02*
G01*
X2892043Y-420878D01*
X2881629Y-410463D01*
X2871470Y-405384D01*
X2850641Y-405384D01*
X2840227Y-410463D01*
X2829813Y-420878D01*
X2824479Y-431292D01*
X2819400Y-447039D01*
X2819400Y-472947D01*
X2824479Y-488442D01*
X2829813Y-498855D01*
X2840227Y-509270D01*
X2850641Y-514350D01*
X2871470Y-514350D01*
X2881629Y-509270D01*
X2892043Y-498855D01*
X2897377Y-488442D01*
X2931668Y-426212D02*
G01*
X2942081Y-420878D01*
X2957575Y-405384D01*
X2957575Y-514350D01*
X3494277Y-1117092D02*
G01*
X3488943Y-1106678D01*
X3478529Y-1096263D01*
X3468370Y-1091184D01*
X3447541Y-1091184D01*
X3437127Y-1096263D01*
X3426713Y-1106678D01*
X3421379Y-1117092D01*
X3416300Y-1132839D01*
X3416300Y-1158747D01*
X3421379Y-1174242D01*
X3426713Y-1184655D01*
X3437127Y-1195070D01*
X3447541Y-1200150D01*
X3468370Y-1200150D01*
X3478529Y-1195070D01*
X3488943Y-1184655D01*
X3494277Y-1174242D01*
X3533647Y-1117092D02*
G01*
X3533647Y-1112012D01*
X3538981Y-1101597D01*
X3544061Y-1096263D01*
X3554475Y-1091184D01*
X3575304Y-1091184D01*
X3585718Y-1096263D01*
X3590797Y-1101597D01*
X3596131Y-1112012D01*
X3596131Y-1122426D01*
X3590797Y-1132839D01*
X3580384Y-1148334D01*
X3528568Y-1200150D01*
X3601211Y-1200150D01*
X4241291Y-798321D02*
G01*
X4230877Y-803655D01*
X4220463Y-814070D01*
X4215384Y-824229D01*
X4215384Y-845057D01*
X4220463Y-855471D01*
X4230877Y-865886D01*
X4241291Y-871220D01*
X4257040Y-876300D01*
X4282947Y-876300D01*
X4298441Y-871220D01*
X4308856Y-865886D01*
X4319270Y-855471D01*
X4324350Y-845057D01*
X4324350Y-824229D01*
X4319270Y-814070D01*
X4308856Y-803655D01*
X4298441Y-798321D01*
X4215384Y-753618D02*
G01*
X4215384Y-696468D01*
X4257040Y-727710D01*
X4257040Y-712215D01*
X4262120Y-701802D01*
X4267200Y-696468D01*
X4282947Y-691387D01*
X4293361Y-691387D01*
X4308856Y-696468D01*
X4319270Y-706881D01*
X4324350Y-722629D01*
X4324350Y-738123D01*
X4319270Y-753618D01*
X4314190Y-758952D01*
X4303775Y-764031D01*
X3748277Y-621792D02*
G01*
X3742943Y-611378D01*
X3732529Y-600963D01*
X3722370Y-595884D01*
X3701541Y-595884D01*
X3691127Y-600963D01*
X3680713Y-611378D01*
X3675379Y-621792D01*
X3670300Y-637539D01*
X3670300Y-663447D01*
X3675379Y-678942D01*
X3680713Y-689355D01*
X3691127Y-699770D01*
X3701541Y-704850D01*
X3722370Y-704850D01*
X3732529Y-699770D01*
X3742943Y-689355D01*
X3748277Y-678942D01*
X3834384Y-595884D02*
G01*
X3782568Y-668528D01*
X3860545Y-668528D01*
X3834384Y-595884D02*
G01*
X3834384Y-704850D01*
X4292091Y-493521D02*
G01*
X4281677Y-498855D01*
X4271263Y-509270D01*
X4266184Y-519429D01*
X4266184Y-540257D01*
X4271263Y-550671D01*
X4281677Y-561086D01*
X4292091Y-566420D01*
X4307840Y-571500D01*
X4333747Y-571500D01*
X4349241Y-566420D01*
X4359656Y-561086D01*
X4370070Y-550671D01*
X4375150Y-540257D01*
X4375150Y-519429D01*
X4370070Y-509270D01*
X4359656Y-498855D01*
X4349241Y-493521D01*
X4266184Y-397002D02*
G01*
X4266184Y-448818D01*
X4312920Y-454152D01*
X4307840Y-448818D01*
X4302506Y-433323D01*
X4302506Y-417829D01*
X4307840Y-402081D01*
X4318000Y-391668D01*
X4333747Y-386587D01*
X4344161Y-386587D01*
X4359656Y-391668D01*
X4370070Y-402081D01*
X4375150Y-417829D01*
X4375150Y-433323D01*
X4370070Y-448818D01*
X4364990Y-454152D01*
X4354575Y-459231D01*
X4711191Y-468121D02*
G01*
X4700777Y-473455D01*
X4690363Y-483870D01*
X4685284Y-494029D01*
X4685284Y-514857D01*
X4690363Y-525271D01*
X4700777Y-535686D01*
X4711191Y-541020D01*
X4726940Y-546100D01*
X4752847Y-546100D01*
X4768341Y-541020D01*
X4778756Y-535686D01*
X4789170Y-525271D01*
X4794250Y-514857D01*
X4794250Y-494029D01*
X4789170Y-483870D01*
X4778756Y-473455D01*
X4768341Y-468121D01*
X4700777Y-371602D02*
G01*
X4690363Y-376681D01*
X4685284Y-392429D01*
X4685284Y-402589D01*
X4690363Y-418337D01*
X4706111Y-428752D01*
X4732020Y-433831D01*
X4757927Y-433831D01*
X4778756Y-428752D01*
X4789170Y-418337D01*
X4794250Y-402589D01*
X4794250Y-397510D01*
X4789170Y-382015D01*
X4778756Y-371602D01*
X4763261Y-366268D01*
X4757927Y-366268D01*
X4742434Y-371602D01*
X4732020Y-382015D01*
X4726940Y-397510D01*
X4726940Y-402589D01*
X4732020Y-418337D01*
X4742434Y-428752D01*
X4757927Y-433831D01*
X5411977Y-1002792D02*
G01*
X5406643Y-992378D01*
X5396229Y-981963D01*
X5386070Y-976884D01*
X5365241Y-976884D01*
X5354827Y-981963D01*
X5344413Y-992378D01*
X5339079Y-1002792D01*
X5334000Y-1018539D01*
X5334000Y-1044447D01*
X5339079Y-1059942D01*
X5344413Y-1070355D01*
X5354827Y-1080770D01*
X5365241Y-1085850D01*
X5386070Y-1085850D01*
X5396229Y-1080770D01*
X5406643Y-1070355D01*
X5411977Y-1059942D01*
X5518911Y-976884D02*
G01*
X5467095Y-1085850D01*
X5446268Y-976884D02*
G01*
X5518911Y-976884D01*
X4952491Y-798321D02*
G01*
X4942077Y-803655D01*
X4931663Y-814070D01*
X4926584Y-824229D01*
X4926584Y-845057D01*
X4931663Y-855471D01*
X4942077Y-865886D01*
X4952491Y-871220D01*
X4968240Y-876300D01*
X4994147Y-876300D01*
X5009641Y-871220D01*
X5020056Y-865886D01*
X5030470Y-855471D01*
X5035550Y-845057D01*
X5035550Y-824229D01*
X5030470Y-814070D01*
X5020056Y-803655D01*
X5009641Y-798321D01*
X4926584Y-738123D02*
G01*
X4931663Y-753618D01*
X4942077Y-758952D01*
X4952491Y-758952D01*
X4962906Y-753618D01*
X4968240Y-743204D01*
X4973320Y-722629D01*
X4978400Y-706881D01*
X4988813Y-696468D01*
X4999227Y-691387D01*
X5014975Y-691387D01*
X5025390Y-696468D01*
X5030470Y-701802D01*
X5035550Y-717295D01*
X5035550Y-738123D01*
X5030470Y-753618D01*
X5025390Y-758952D01*
X5014975Y-764031D01*
X4999227Y-764031D01*
X4988813Y-758952D01*
X4978400Y-748537D01*
X4973320Y-732789D01*
X4968240Y-712215D01*
X4962906Y-701802D01*
X4952491Y-696468D01*
X4942077Y-696468D01*
X4931663Y-701802D01*
X4926584Y-717295D01*
X4926584Y-738123D01*
X6527291Y-1065021D02*
G01*
X6516877Y-1070355D01*
X6506463Y-1080770D01*
X6501384Y-1090929D01*
X6501384Y-1111757D01*
X6506463Y-1122171D01*
X6516877Y-1132586D01*
X6527291Y-1137920D01*
X6543040Y-1143000D01*
X6568947Y-1143000D01*
X6584441Y-1137920D01*
X6594856Y-1132586D01*
X6605270Y-1122171D01*
X6610350Y-1111757D01*
X6610350Y-1090929D01*
X6605270Y-1080770D01*
X6594856Y-1070355D01*
X6584441Y-1065021D01*
X6537706Y-963168D02*
G01*
X6553200Y-968502D01*
X6563613Y-978915D01*
X6568947Y-994410D01*
X6568947Y-999489D01*
X6563613Y-1015237D01*
X6553200Y-1025652D01*
X6537706Y-1030731D01*
X6532625Y-1030731D01*
X6516877Y-1025652D01*
X6506463Y-1015237D01*
X6501384Y-999489D01*
X6501384Y-994410D01*
X6506463Y-978915D01*
X6516877Y-968502D01*
X6537706Y-963168D01*
X6563613Y-963168D01*
X6589775Y-968502D01*
X6605270Y-978915D01*
X6610350Y-994410D01*
X6610350Y-1004823D01*
X6605270Y-1020318D01*
X6594856Y-1025652D01*
X5993891Y-772921D02*
G01*
X5983477Y-778255D01*
X5973063Y-788670D01*
X5967984Y-798829D01*
X5967984Y-819657D01*
X5973063Y-830071D01*
X5983477Y-840486D01*
X5993891Y-845820D01*
X6009640Y-850900D01*
X6035547Y-850900D01*
X6051041Y-845820D01*
X6061456Y-840486D01*
X6071870Y-830071D01*
X6076950Y-819657D01*
X6076950Y-798829D01*
X6071870Y-788670D01*
X6061456Y-778255D01*
X6051041Y-772921D01*
X5988811Y-738631D02*
G01*
X5983477Y-728218D01*
X5967984Y-712723D01*
X6076950Y-712723D01*
X5967984Y-647192D02*
G01*
X5973063Y-662939D01*
X5988811Y-673100D01*
X6014720Y-678434D01*
X6030213Y-678434D01*
X6056375Y-673100D01*
X6071870Y-662939D01*
X6076950Y-647192D01*
X6076950Y-636778D01*
X6071870Y-621284D01*
X6056375Y-610870D01*
X6030213Y-605789D01*
X6014720Y-605789D01*
X5988811Y-610870D01*
X5973063Y-621284D01*
X5967984Y-636778D01*
X5967984Y-647192D01*
X7111491Y-1065021D02*
G01*
X7101077Y-1070355D01*
X7090663Y-1080770D01*
X7085584Y-1090929D01*
X7085584Y-1111757D01*
X7090663Y-1122171D01*
X7101077Y-1132586D01*
X7111491Y-1137920D01*
X7127240Y-1143000D01*
X7153147Y-1143000D01*
X7168641Y-1137920D01*
X7179056Y-1132586D01*
X7189470Y-1122171D01*
X7194550Y-1111757D01*
X7194550Y-1090929D01*
X7189470Y-1080770D01*
X7179056Y-1070355D01*
X7168641Y-1065021D01*
X7106411Y-1030731D02*
G01*
X7101077Y-1020318D01*
X7085584Y-1004823D01*
X7194550Y-1004823D01*
X7106411Y-970534D02*
G01*
X7101077Y-960120D01*
X7085584Y-944626D01*
X7194550Y-944626D01*
X2122180Y-557784D02*
G01*
X2122180Y-640842D01*
X2116846Y-656589D01*
X2111766Y-661670D01*
X2101352Y-666750D01*
X2090938Y-666750D01*
X2080524Y-661670D01*
X2075190Y-656589D01*
X2070110Y-640842D01*
X2070110Y-630428D01*
X2156470Y-578612D02*
G01*
X2166630Y-573278D01*
X2182378Y-557784D01*
X2182378Y-666750D01*
X6553200Y-456184D02*
G01*
X6553200Y-565150D01*
X6553200Y-565150D02*
G01*
X6615429Y-565150D01*
X6649720Y-477012D02*
G01*
X6660134Y-471678D01*
X6675881Y-456184D01*
X6675881Y-565150D01*
X3493515Y-247142D02*
G01*
X3488436Y-236728D01*
X3478022Y-226313D01*
X3467608Y-220979D01*
X3451859Y-215900D01*
X3425952Y-215900D01*
X3410458Y-220979D01*
X3400043Y-226313D01*
X3389629Y-236728D01*
X3384550Y-247142D01*
X3384550Y-267970D01*
X3389629Y-278129D01*
X3400043Y-288544D01*
X3410458Y-293878D01*
X3425952Y-298957D01*
X3451859Y-298957D01*
X3467608Y-293878D01*
X3478022Y-288544D01*
X3488436Y-278129D01*
X3493515Y-267970D01*
X3493515Y-247142D01*
X3405124Y-262636D02*
G01*
X3374136Y-293878D01*
X3472688Y-333247D02*
G01*
X3478022Y-343662D01*
X3493515Y-359410D01*
X3384550Y-359410D01*
X4616958Y-1080515D02*
G01*
X4627372Y-1075436D01*
X4637786Y-1065021D01*
X4643120Y-1054607D01*
X4648200Y-1038860D01*
X4648200Y-1012952D01*
X4643120Y-997457D01*
X4637786Y-987044D01*
X4627372Y-976629D01*
X4616958Y-971550D01*
X4596129Y-971550D01*
X4585970Y-976629D01*
X4575556Y-987044D01*
X4570222Y-997457D01*
X4565141Y-1012952D01*
X4565141Y-1038860D01*
X4570222Y-1054607D01*
X4575556Y-1065021D01*
X4585970Y-1075436D01*
X4596129Y-1080515D01*
X4616958Y-1080515D01*
X4601463Y-992123D02*
G01*
X4570222Y-961136D01*
X4525518Y-1054607D02*
G01*
X4525518Y-1059687D01*
X4520438Y-1070102D01*
X4515104Y-1075436D01*
X4504690Y-1080515D01*
X4484115Y-1080515D01*
X4473702Y-1075436D01*
X4468368Y-1070102D01*
X4463288Y-1059687D01*
X4463288Y-1049273D01*
X4468368Y-1038860D01*
X4478781Y-1023365D01*
X4530852Y-971550D01*
X4457954Y-971550D01*
X2540000Y-392684D02*
G01*
X2540000Y-501650D01*
X2540000Y-392684D02*
G01*
X2586736Y-392684D01*
X2602229Y-397763D01*
X2607563Y-403097D01*
X2612643Y-413512D01*
X2612643Y-423926D01*
X2607563Y-434339D01*
X2602229Y-439420D01*
X2586736Y-444500D01*
X2540000Y-444500D01*
X2576322Y-444500D02*
G01*
X2612643Y-501650D01*
X2646934Y-413512D02*
G01*
X2657347Y-408178D01*
X2673095Y-392684D01*
X2673095Y-501650D01*
X2540000Y-49784D02*
G01*
X2540000Y-158750D01*
X2540000Y-49784D02*
G01*
X2586736Y-49784D01*
X2602229Y-54863D01*
X2607563Y-60197D01*
X2612643Y-70612D01*
X2612643Y-81026D01*
X2607563Y-91439D01*
X2602229Y-96520D01*
X2586736Y-101600D01*
X2540000Y-101600D01*
X2576322Y-101600D02*
G01*
X2612643Y-158750D01*
X2652268Y-75692D02*
G01*
X2652268Y-70612D01*
X2657347Y-60197D01*
X2662681Y-54863D01*
X2673095Y-49784D01*
X2693670Y-49784D01*
X2704084Y-54863D01*
X2709418Y-60197D01*
X2714497Y-70612D01*
X2714497Y-81026D01*
X2709418Y-91439D01*
X2699004Y-106934D01*
X2646934Y-158750D01*
X2719831Y-158750D01*
X2691384Y-1079500D02*
G01*
X2800350Y-1079500D01*
X2691384Y-1079500D02*
G01*
X2691384Y-1032763D01*
X2696463Y-1017270D01*
X2701797Y-1011936D01*
X2712211Y-1006855D01*
X2722625Y-1006855D01*
X2733040Y-1011936D01*
X2738120Y-1017270D01*
X2743200Y-1032763D01*
X2743200Y-1079500D01*
X2743200Y-1043178D02*
G01*
X2800350Y-1006855D01*
X2691384Y-962152D02*
G01*
X2691384Y-905002D01*
X2733040Y-935989D01*
X2733040Y-920495D01*
X2738120Y-910081D01*
X2743200Y-905002D01*
X2758947Y-899668D01*
X2769361Y-899668D01*
X2784856Y-905002D01*
X2795270Y-915415D01*
X2800350Y-930910D01*
X2800350Y-946404D01*
X2795270Y-962152D01*
X2790190Y-967231D01*
X2779775Y-972565D01*
X3085084Y-1066800D02*
G01*
X3194050Y-1066800D01*
X3085084Y-1066800D02*
G01*
X3085084Y-1020063D01*
X3090163Y-1004570D01*
X3095497Y-999236D01*
X3105911Y-994155D01*
X3116325Y-994155D01*
X3126740Y-999236D01*
X3131820Y-1004570D01*
X3136900Y-1020063D01*
X3136900Y-1066800D01*
X3136900Y-1030478D02*
G01*
X3194050Y-994155D01*
X3085084Y-907795D02*
G01*
X3157727Y-959865D01*
X3157727Y-881887D01*
X3085084Y-907795D02*
G01*
X3194050Y-907795D01*
X3821684Y-1079500D02*
G01*
X3930650Y-1079500D01*
X3821684Y-1079500D02*
G01*
X3821684Y-1032763D01*
X3826763Y-1017270D01*
X3832097Y-1011936D01*
X3842511Y-1006855D01*
X3852925Y-1006855D01*
X3863340Y-1011936D01*
X3868420Y-1017270D01*
X3873500Y-1032763D01*
X3873500Y-1079500D01*
X3873500Y-1043178D02*
G01*
X3930650Y-1006855D01*
X3821684Y-910081D02*
G01*
X3821684Y-962152D01*
X3868420Y-967231D01*
X3863340Y-962152D01*
X3858006Y-946404D01*
X3858006Y-930910D01*
X3863340Y-915415D01*
X3873500Y-905002D01*
X3889247Y-899668D01*
X3899661Y-899668D01*
X3915156Y-905002D01*
X3925570Y-915415D01*
X3930650Y-930910D01*
X3930650Y-946404D01*
X3925570Y-962152D01*
X3920490Y-967231D01*
X3910075Y-972565D01*
X3148584Y-368300D02*
G01*
X3257550Y-368300D01*
X3148584Y-368300D02*
G01*
X3148584Y-321563D01*
X3153663Y-306070D01*
X3158997Y-300736D01*
X3169411Y-295655D01*
X3179825Y-295655D01*
X3190240Y-300736D01*
X3195320Y-306070D01*
X3200400Y-321563D01*
X3200400Y-368300D01*
X3200400Y-331978D02*
G01*
X3257550Y-295655D01*
X3164077Y-198881D02*
G01*
X3153663Y-204215D01*
X3148584Y-219710D01*
X3148584Y-230123D01*
X3153663Y-245618D01*
X3169411Y-256031D01*
X3195320Y-261365D01*
X3221227Y-261365D01*
X3242056Y-256031D01*
X3252470Y-245618D01*
X3257550Y-230123D01*
X3257550Y-224789D01*
X3252470Y-209295D01*
X3242056Y-198881D01*
X3226561Y-193802D01*
X3221227Y-193802D01*
X3205734Y-198881D01*
X3195320Y-209295D01*
X3190240Y-224789D01*
X3190240Y-230123D01*
X3195320Y-245618D01*
X3205734Y-256031D01*
X3221227Y-261365D01*
X3681984Y-381000D02*
G01*
X3790950Y-381000D01*
X3681984Y-381000D02*
G01*
X3681984Y-334263D01*
X3687063Y-318770D01*
X3692397Y-313436D01*
X3702811Y-308355D01*
X3713225Y-308355D01*
X3723640Y-313436D01*
X3728720Y-318770D01*
X3733800Y-334263D01*
X3733800Y-381000D01*
X3733800Y-344678D02*
G01*
X3790950Y-308355D01*
X3681984Y-201168D02*
G01*
X3790950Y-253237D01*
X3681984Y-274065D02*
G01*
X3681984Y-201168D01*
X3974084Y-368300D02*
G01*
X4083050Y-368300D01*
X3974084Y-368300D02*
G01*
X3974084Y-321563D01*
X3979163Y-306070D01*
X3984497Y-300736D01*
X3994911Y-295655D01*
X4005325Y-295655D01*
X4015740Y-300736D01*
X4020820Y-306070D01*
X4025900Y-321563D01*
X4025900Y-368300D01*
X4025900Y-331978D02*
G01*
X4083050Y-295655D01*
X3974084Y-235204D02*
G01*
X3979163Y-250952D01*
X3989577Y-256031D01*
X3999991Y-256031D01*
X4010406Y-250952D01*
X4015740Y-240537D01*
X4020820Y-219710D01*
X4025900Y-204215D01*
X4036313Y-193802D01*
X4046727Y-188468D01*
X4062475Y-188468D01*
X4072890Y-193802D01*
X4077970Y-198881D01*
X4083050Y-214629D01*
X4083050Y-235204D01*
X4077970Y-250952D01*
X4072890Y-256031D01*
X4062475Y-261365D01*
X4046727Y-261365D01*
X4036313Y-256031D01*
X4025900Y-245618D01*
X4020820Y-230123D01*
X4015740Y-209295D01*
X4010406Y-198881D01*
X3999991Y-193802D01*
X3989577Y-193802D01*
X3979163Y-198881D01*
X3974084Y-214629D01*
X3974084Y-235204D01*
D10*
X3072701Y-595022D02*
G01*
X3072701Y-675025D01*
X2961726Y-564037D02*
G01*
X3041723Y-564037D01*
X2961726Y-706003D02*
G01*
X3041723Y-706003D01*
X2904136Y-563455D02*
G01*
X2824137Y-563455D01*
X2793154Y-594438D02*
G01*
X2793154Y-674436D01*
X2904136Y-705416D02*
G01*
X2824137Y-705416D01*
X3656901Y-950622D02*
G01*
X3656901Y-1030625D01*
X3545926Y-919637D02*
G01*
X3625923Y-919637D01*
X3545926Y-1061603D02*
G01*
X3625923Y-1061603D01*
X3488336Y-919055D02*
G01*
X3408337Y-919055D01*
X3377354Y-950038D02*
G01*
X3377354Y-1030036D01*
X3488336Y-1061016D02*
G01*
X3408337Y-1061016D01*
X4214522Y-915098D02*
G01*
X4294525Y-915098D01*
X4183537Y-1026073D02*
G01*
X4183537Y-946076D01*
X4325503Y-1026073D02*
G01*
X4325503Y-946076D01*
X4182955Y-1083663D02*
G01*
X4182955Y-1163662D01*
X4213938Y-1194645D02*
G01*
X4293936Y-1194645D01*
X4324916Y-1083663D02*
G01*
X4324916Y-1163662D01*
X4164901Y-607722D02*
G01*
X4164901Y-687725D01*
X4053926Y-576737D02*
G01*
X4133923Y-576737D01*
X4053926Y-718703D02*
G01*
X4133923Y-718703D01*
X3996336Y-576155D02*
G01*
X3916337Y-576155D01*
X3885354Y-607138D02*
G01*
X3885354Y-687136D01*
X3996336Y-718116D02*
G01*
X3916337Y-718116D01*
X4316122Y-38798D02*
G01*
X4396125Y-38798D01*
X4285137Y-149773D02*
G01*
X4285137Y-69776D01*
X4427103Y-149773D02*
G01*
X4427103Y-69776D01*
X4284555Y-207363D02*
G01*
X4284555Y-287362D01*
X4315538Y-318345D02*
G01*
X4395536Y-318345D01*
X4426516Y-207363D02*
G01*
X4426516Y-287362D01*
X4697122Y-38798D02*
G01*
X4777125Y-38798D01*
X4666137Y-149773D02*
G01*
X4666137Y-69776D01*
X4808103Y-149773D02*
G01*
X4808103Y-69776D01*
X4665555Y-207363D02*
G01*
X4665555Y-287362D01*
X4696538Y-318345D02*
G01*
X4776536Y-318345D01*
X4807516Y-207363D02*
G01*
X4807516Y-287362D01*
X4938422Y-915098D02*
G01*
X5018425Y-915098D01*
X4907437Y-1026073D02*
G01*
X4907437Y-946076D01*
X5049403Y-1026073D02*
G01*
X5049403Y-946076D01*
X4906855Y-1083663D02*
G01*
X4906855Y-1163662D01*
X4937838Y-1194645D02*
G01*
X5017836Y-1194645D01*
X5048816Y-1083663D02*
G01*
X5048816Y-1163662D01*
X6500522Y-635698D02*
G01*
X6580525Y-635698D01*
X6469537Y-746673D02*
G01*
X6469537Y-666676D01*
X6611503Y-746673D02*
G01*
X6611503Y-666676D01*
X6468955Y-804263D02*
G01*
X6468955Y-884262D01*
X6499938Y-915245D02*
G01*
X6579936Y-915245D01*
X6610916Y-804263D02*
G01*
X6610916Y-884262D01*
X5967122Y-915098D02*
G01*
X6047125Y-915098D01*
X5936137Y-1026073D02*
G01*
X5936137Y-946076D01*
X6078103Y-1026073D02*
G01*
X6078103Y-946076D01*
X5935555Y-1083663D02*
G01*
X5935555Y-1163662D01*
X5966538Y-1194645D02*
G01*
X6046536Y-1194645D01*
X6077516Y-1083663D02*
G01*
X6077516Y-1163662D01*
X7262522Y-902398D02*
G01*
X7342525Y-902398D01*
X7231537Y-1013373D02*
G01*
X7231537Y-933376D01*
X7373503Y-1013373D02*
G01*
X7373503Y-933376D01*
X7230955Y-1070963D02*
G01*
X7230955Y-1150962D01*
X7261938Y-1181945D02*
G01*
X7341936Y-1181945D01*
X7372916Y-1070963D02*
G01*
X7372916Y-1150962D01*
X2413000Y-1041496D02*
G01*
X2413000Y-1169601D01*
X2413000Y-341495D02*
G01*
X2413000Y-877707D01*
X1808200Y-672200D02*
G01*
X1808200Y-63500D01*
X2413000Y-63500D01*
X2413000Y-177706D01*
X1808200Y-1169601D02*
G01*
X1808200Y-847003D01*
X1853224Y-1169601D02*
G01*
X1853224Y-1473200D01*
X2362200Y-1473200D01*
X2362200Y-1169601D01*
X1808200Y-1169601D02*
G01*
X2408199Y-1169601D01*
X6314440Y-398779D02*
G01*
X6314440Y-160020D01*
X6314440Y-160020D02*
G01*
X6944359Y-160020D01*
X6944359Y-160020D02*
G01*
X6944359Y-398779D01*
X6944359Y-398779D02*
G01*
X6314440Y-398779D01*
X3295700Y-626110D02*
G01*
X3295700Y-544601D01*
X3361690Y-544601D01*
X3521709Y-544601D02*
G01*
X3587699Y-544601D01*
X3521709Y-544601D01*
X3587699Y-544601D01*
X3587699Y-626110D01*
D23*
X3411702Y-699592D02*
G01*
X3471697Y-699592D01*
D10*
X4580890Y-882700D02*
G01*
X4662398Y-882700D01*
X4662398Y-948689D01*
X4662398Y-1108710D02*
G01*
X4662398Y-1174699D01*
X4662398Y-1108710D01*
X4662398Y-1174699D01*
X4580890Y-1174699D01*
D23*
X4507407Y-998702D02*
G01*
X4507407Y-1058697D01*
D24*
X2646121Y-675660D02*
G01*
X2742008Y-675660D01*
X2742008Y-543539D01*
X2646121Y-543539D01*
X2560878Y-675660D02*
G01*
X2464991Y-675660D01*
X2464991Y-543539D01*
X2560878Y-543539D01*
X2646121Y-332760D02*
G01*
X2742008Y-332760D01*
X2742008Y-200639D01*
X2646121Y-200639D01*
X2560878Y-332760D02*
G01*
X2464991Y-332760D01*
X2464991Y-200639D01*
X2560878Y-200639D01*
X2863809Y-895479D02*
G01*
X2863809Y-759487D01*
X2647990Y-759487D01*
X2647990Y-895479D01*
X2863809Y-1085720D02*
G01*
X2863809Y-1221712D01*
X2647990Y-1221712D01*
X2647990Y-1085720D01*
X3270209Y-895479D02*
G01*
X3270209Y-759487D01*
X3054390Y-759487D01*
X3054390Y-895479D01*
X3270209Y-1085720D02*
G01*
X3270209Y-1221712D01*
X3054390Y-1221712D01*
X3054390Y-1085720D01*
X3981409Y-895479D02*
G01*
X3981409Y-759487D01*
X3765590Y-759487D01*
X3765590Y-895479D01*
X3981409Y-1085720D02*
G01*
X3981409Y-1221712D01*
X3765590Y-1221712D01*
X3765590Y-1085720D01*
X3295609Y-184279D02*
G01*
X3295609Y-48287D01*
X3079790Y-48287D01*
X3079790Y-184279D01*
X3295609Y-374520D02*
G01*
X3295609Y-510512D01*
X3079790Y-510512D01*
X3079790Y-374520D01*
X3841709Y-209679D02*
G01*
X3841709Y-73687D01*
X3625890Y-73687D01*
X3625890Y-209679D01*
X3841709Y-399920D02*
G01*
X3841709Y-535912D01*
X3625890Y-535912D01*
X3625890Y-399920D01*
X4146509Y-196979D02*
G01*
X4146509Y-60987D01*
X3930690Y-60987D01*
X3930690Y-196979D01*
X4146509Y-387220D02*
G01*
X4146509Y-523212D01*
X3930690Y-523212D01*
X3930690Y-387220D01*
D10*
G75*
G01*
X2793149Y-594439D02*
G02*
X2824132Y-563456I30983J0D01*
G75*
G01*
X2824132Y-705422D02*
G02*
X2793149Y-674436I0J30983D01*
G75*
G01*
X3041719Y-564037D02*
G02*
X3072701Y-595023I0J-30983D01*
G75*
G01*
X3072701Y-675020D02*
G02*
X3041719Y-706003I-30982J0D01*
G75*
G01*
X3377349Y-950039D02*
G02*
X3408332Y-919056I30983J0D01*
G75*
G01*
X3408332Y-1061022D02*
G02*
X3377349Y-1030036I0J30983D01*
G75*
G01*
X3625919Y-919637D02*
G02*
X3656901Y-950623I0J-30983D01*
G75*
G01*
X3656901Y-1030620D02*
G02*
X3625919Y-1061603I-30982J0D01*
G75*
G01*
X4213939Y-1194651D02*
G02*
X4182956Y-1163668I0J30983D01*
G75*
G01*
X4324922Y-1163668D02*
G02*
X4293936Y-1194651I-30983J0D01*
G75*
G01*
X4183537Y-946081D02*
G02*
X4214523Y-915099I30983J0D01*
G75*
G01*
X4294520Y-915099D02*
G02*
X4325503Y-946081I0J-30982D01*
G75*
G01*
X3885349Y-607139D02*
G02*
X3916332Y-576156I30983J0D01*
G75*
G01*
X3916332Y-718122D02*
G02*
X3885349Y-687136I0J30983D01*
G75*
G01*
X4133919Y-576737D02*
G02*
X4164901Y-607723I0J-30983D01*
G75*
G01*
X4164901Y-687720D02*
G02*
X4133919Y-718703I-30982J0D01*
G75*
G01*
X4315539Y-318351D02*
G02*
X4284556Y-287368I0J30983D01*
G75*
G01*
X4426522Y-287368D02*
G02*
X4395536Y-318351I-30983J0D01*
G75*
G01*
X4285137Y-69781D02*
G02*
X4316123Y-38799I30983J0D01*
G75*
G01*
X4396120Y-38799D02*
G02*
X4427103Y-69781I0J-30982D01*
G75*
G01*
X4696539Y-318351D02*
G02*
X4665556Y-287368I0J30983D01*
G75*
G01*
X4807522Y-287368D02*
G02*
X4776536Y-318351I-30983J0D01*
G75*
G01*
X4666137Y-69781D02*
G02*
X4697123Y-38799I30983J0D01*
G75*
G01*
X4777120Y-38799D02*
G02*
X4808103Y-69781I0J-30982D01*
G75*
G01*
X4937839Y-1194651D02*
G02*
X4906856Y-1163668I0J30983D01*
G75*
G01*
X5048822Y-1163668D02*
G02*
X5017836Y-1194651I-30983J0D01*
G75*
G01*
X4907437Y-946081D02*
G02*
X4938423Y-915099I30983J0D01*
G75*
G01*
X5018420Y-915099D02*
G02*
X5049403Y-946081I0J-30982D01*
G75*
G01*
X6499939Y-915251D02*
G02*
X6468956Y-884268I0J30983D01*
G75*
G01*
X6610922Y-884268D02*
G02*
X6579936Y-915251I-30983J0D01*
G75*
G01*
X6469537Y-666681D02*
G02*
X6500523Y-635699I30983J0D01*
G75*
G01*
X6580520Y-635699D02*
G02*
X6611503Y-666681I0J-30982D01*
G75*
G01*
X5966539Y-1194651D02*
G02*
X5935556Y-1163668I0J30983D01*
G75*
G01*
X6077522Y-1163668D02*
G02*
X6046536Y-1194651I-30983J0D01*
G75*
G01*
X5936137Y-946081D02*
G02*
X5967123Y-915099I30983J0D01*
G75*
G01*
X6047120Y-915099D02*
G02*
X6078103Y-946081I0J-30982D01*
G75*
G01*
X7261939Y-1181951D02*
G02*
X7230956Y-1150968I0J30983D01*
G75*
G01*
X7372922Y-1150968D02*
G02*
X7341936Y-1181951I-30983J0D01*
G75*
G01*
X7231537Y-933381D02*
G02*
X7262523Y-902399I30983J0D01*
G75*
G01*
X7342520Y-902399D02*
G02*
X7373503Y-933381I0J-30982D01*
G75*
G01
X5828309Y-558800D02*
G03X5828309Y-558800I-380009J0D01*
M02*
